<svg width="205" height="205" version="1.1" xmlns="http://www.w3.org/2000/svg"><path fill="rgb(216,216,216)" stroke="rgb(216,216,216)" stroke-width="1" opacity="1" d="M 99.5 40 L 107 40.5 L 99.5 41 L 99.5 40 Z "></path><path fill="rgb(216,216,216)" stroke="rgb(216,216,216)" stroke-width="1" opacity="1" d="M 47.5 69 L 45.5 72 L 47.5 69 Z "></path><path fill="rgb(216,216,216)" stroke="rgb(216,216,216)" stroke-width="1" opacity="1" d="M 154.5 69 L 153.5 71 L 154.5 69 Z "></path><path fill="rgb(216,216,216)" stroke="rgb(216,216,216)" stroke-width="1" opacity="1" d="M 53.5 72 L 52.5 74 L 53.5 72 Z "></path><path fill="rgb(216,216,216)" stroke="rgb(216,216,216)" stroke-width="1" opacity="1" d="M 91.5 72 L 93.5 75 L 91.5 72 Z "></path><path fill="rgb(216,216,216)" stroke="rgb(216,216,216)" stroke-width="1" opacity="1" d="M 23.5 74 L 24.5 76 L 23.5 74 Z "></path><path fill="rgb(216,216,216)" stroke="rgb(216,216,216)" stroke-width="1" opacity="1" d="M 104.5 76 L 110 76.5 L 104.5 77 L 104.5 76 Z "></path><path fill="rgb(216,216,216)" stroke="rgb(216,216,216)" stroke-width="1" opacity="1" d="M 52.5 79 L 55 79.5 L 52.5 80 L 52.5 79 Z "></path><path fill="rgb(216,216,216)" stroke="rgb(216,216,216)" stroke-width="1" opacity="1" d="M 129.5 79 L 135 79.5 L 129.5 80 L 129.5 79 Z "></path><path fill="rgb(216,216,216)" stroke="rgb(216,216,216)" stroke-width="1" opacity="1" d="M 46.5 82 L 47.5 84 L 46.5 82 Z "></path><path fill="rgb(216,216,216)" stroke="rgb(216,216,216)" stroke-width="1" opacity="1" d="M 104.5 82 L 109 82.5 L 104.5 83 L 104.5 82 Z "></path><path fill="rgb(216,216,216)" stroke="rgb(216,216,216)" stroke-width="1" opacity="1" d="M 11.5 83 L 12.5 85 L 11.5 83 Z "></path><path fill="rgb(216,216,216)" stroke="rgb(216,216,216)" stroke-width="1" opacity="1" d="M 52.5 85 L 56 85.5 L 52.5 86 L 52.5 85 Z "></path><path fill="rgb(216,216,216)" stroke="rgb(216,216,216)" stroke-width="1" opacity="1" d="M 128.5 85 L 133 85.5 L 128.5 86 L 128.5 85 Z "></path><path fill="rgb(216,216,216)" stroke="rgb(216,216,216)" stroke-width="1" opacity="1" d="M 135.5 86 L 136 88.5 L 135 88.5 L 135.5 86 Z "></path><path fill="rgb(216,216,216)" stroke="rgb(216,216,216)" stroke-width="1" opacity="1" d="M 146.5 86 L 149 86.5 L 146.5 87 L 146.5 86 Z "></path><path fill="rgb(216,216,216)" stroke="rgb(216,216,216)" stroke-width="1" opacity="1" d="M 155.5 86 L 158 86.5 L 155.5 87 L 155.5 86 Z "></path><path fill="rgb(216,216,216)" stroke="rgb(216,216,216)" stroke-width="1" opacity="1" d="M 43.5 90 L 44 104.5 L 43 104.5 L 43.5 90 Z "></path><path fill="rgb(216,216,216)" stroke="rgb(216,216,216)" stroke-width="1" opacity="1" d="M 155.5 92 L 158 92.5 L 155.5 93 L 155.5 92 Z "></path><path fill="rgb(216,216,216)" stroke="rgb(216,216,216)" stroke-width="1" opacity="1" d="M 60.5 96 L 61 101.5 L 60 101.5 L 60.5 96 Z "></path><path fill="rgb(216,216,216)" stroke="rgb(216,216,216)" stroke-width="1" opacity="1" d="M 66.5 96 L 67 101.5 L 66 101.5 L 66.5 96 Z "></path><path fill="rgb(216,216,216)" stroke="rgb(216,216,216)" stroke-width="1" opacity="1" d="M 182.5 96 L 183.5 98 L 182.5 96 Z "></path><path fill="rgb(216,216,216)" stroke="rgb(216,216,216)" stroke-width="1" opacity="1" d="M 119.5 97 L 118.5 99 L 119.5 97 Z "></path><path fill="rgb(216,216,216)" stroke="rgb(216,216,216)" stroke-width="1" opacity="1" d="M 122.5 102 L 120.5 105 L 122.5 102 Z "></path><path fill="rgb(216,216,216)" stroke="rgb(216,216,216)" stroke-width="1" opacity="1" d="M 180.5 102 L 181.5 104 L 180.5 102 Z "></path><path fill="rgb(216,216,216)" stroke="rgb(216,216,216)" stroke-width="1" opacity="1" d="M 118.5 106 L 116.5 109 L 118.5 106 Z "></path><path fill="rgb(216,216,216)" stroke="rgb(216,216,216)" stroke-width="1" opacity="1" d="M 203.5 106 L 204 111.5 L 203 111.5 L 203.5 106 Z "></path><path fill="rgb(216,216,216)" stroke="rgb(216,216,216)" stroke-width="1" opacity="1" d="M 185.5 107 L 186.5 109 L 185.5 107 Z "></path><path fill="rgb(216,216,216)" stroke="rgb(216,216,216)" stroke-width="1" opacity="1" d="M 203.5 136 L 204 140.5 L 203 140.5 L 203.5 136 Z "></path><path fill="rgb(216,216,216)" stroke="rgb(216,216,216)" stroke-width="1" opacity="1" d="M 105.5 137 L 106 139.5 L 105 139.5 L 105.5 137 Z "></path><path fill="rgb(216,216,216)" stroke="rgb(216,216,216)" stroke-width="1" opacity="1" d="M 185.5 169 L 182.5 173 L 185.5 169 Z "></path><path fill="rgb(216,216,216)" stroke="rgb(216,216,216)" stroke-width="1" opacity="1" d="M 118.5 170 L 120.5 173 L 118.5 170 Z "></path><path fill="rgb(216,216,216)" stroke="rgb(216,216,216)" stroke-width="1" opacity="1" d="M 192.5 170 L 191.5 172 L 192.5 170 Z "></path><path fill="rgb(216,216,216)" stroke="rgb(216,216,216)" stroke-width="1" opacity="1" d="M 111.5 171 L 112.5 173 L 111.5 171 Z "></path><path fill="rgb(216,216,216)" stroke="rgb(216,216,216)" stroke-width="1" opacity="1" d="M 124.5 175 L 125.5 177 L 124.5 175 Z "></path><path fill="rgb(216,216,216)" stroke="rgb(216,216,216)" stroke-width="1" opacity="1" d="M 118.5 178 L 119.5 180 L 118.5 178 Z "></path><path fill="rgb(216,216,216)" stroke="rgb(216,216,216)" stroke-width="1" opacity="1" d="M 184.5 178 L 183.5 180 L 184.5 178 Z "></path><path fill="rgb(216,216,216)" stroke="rgb(216,216,216)" stroke-width="1" opacity="1" d="M 147.5 190 L 156 190.5 L 147.5 191 L 147.5 190 Z "></path><path fill="rgb(20,20,20)" stroke="rgb(20,20,20)" stroke-width="1" opacity="1" d="M 0 0 L 205 0 L 205 205 L 0 205 L 0 0 Z M 163 27 L 143 40 L 136 43 L 113 41 L 112 40 Q 98 38 90 42 L 50 67 Q 41 73 37 84 L 37 105 L 2 105 L 1 106 L 1 112 L 84 112 L 85 113 L 105 113 L 99 133 L 100 151 Q 104 164 112 174 Q 123 187 144 191 L 160 191 L 165 190 Q 177 186 186 179 Q 200 167 204 146 L 204 132 L 198 115 L 198 112 L 204 112 L 204 105 L 193 105 Q 183 94 169 88 L 161 86 L 142 86 L 182 60 L 180 54 Q 162 62 149 74 L 138 79 L 127 79 L 115 76 Q 101 78 94 74 L 92 72 L 92 70 L 113 70 L 113 70 L 113 63 L 85 63 L 56 79 L 53 79 L 51 76 L 86 52 L 99 47 L 110 47 L 127 50 Q 135 51 141 49 L 166 34 Q 166 29 163 27 Z M 40 33 L 35 42 L 30 43 L 27 48 Q 29 51 34 51 Q 37 53 37 58 Q 38 60 42 60 L 46 53 L 52 50 Q 55 50 54 46 Q 53 42 49 43 L 44 36 Q 43 33 40 33 Z M 17 66 L 12 75 L 5 77 L 4 80 L 5 82 L 12 84 L 15 92 L 19 93 L 23 86 L 29 83 Q 32 82 31 78 L 25 75 L 21 68 Q 20 65 17 66 Z "></path><path fill="rgb(20,20,20)" stroke="rgb(20,20,20)" stroke-width="1" opacity="1" d="M 68.5 80 L 90.5 80 L 95.5 83 L 111.5 83 L 123.5 86 L 135 86 L 133.5 89 Q 119.2 94.2 110.5 105 L 44 105 L 44 85.5 L 45 83 L 50.5 86 L 57.5 86 L 68.5 80 Z M 102 86 L 102 93 L 109 93 L 109 86 L 102 86 Z M 60 95 L 60 103 L 67 103 L 67 95 L 60 95 Z "></path><path fill="rgb(20,20,20)" stroke="rgb(20,20,20)" stroke-width="1" opacity="1" d="M 144.5 93 L 158.5 93 L 166.5 95 Q 179.4 99.6 187 109.5 L 196 127.5 L 197 143.5 Q 194 162 182.5 172 Q 175.6 178.6 165.5 182 L 156.5 184 L 146.5 184 Q 128 181 118 169.5 Q 106.3 157.7 106 134.5 L 108 124.5 L 113 113.5 L 122.5 103 Q 130.9 95.4 144.5 93 Z M 129 109 L 125 111 L 119 118 L 119 159 L 121 163 L 129 168 L 178 168 L 183 165 L 187 155 L 187 141 L 185 137 L 179 132 Q 168 130 166 136 L 165 121 L 162 114 L 156 109 L 129 109 Z "></path><path fill="rgb(20,20,20)" stroke="rgb(20,20,20)" stroke-width="1" opacity="1" d="M 129.5 116 L 154.5 116 L 157 118.5 L 158 120.5 L 158 144 Q 150.2 145.5 146 151.5 L 145 159.5 L 145.5 161 L 129.5 161 L 126 157.5 L 126 119.5 L 127 117 L 129.5 116 Z "></path><path fill="rgb(20,20,20)" stroke="rgb(20,20,20)" stroke-width="1" opacity="1" d="M 174.5 138 L 180 141.5 L 181 149.5 L 179 158.5 L 176.5 161 L 154.5 161 L 152 158.5 Q 151 154 153.5 153 L 167 146.5 L 171.5 139 L 174.5 138 Z "></path><path fill="rgb(255,255,255)" stroke="rgb(255,255,255)" stroke-width="1" opacity="1" d="M 162.5 28 L 165 34 L 141.5 48 Q 135.2 50.8 124.5 49 L 115.5 47 L 99.5 46 L 87.5 50 L 50 75.5 Q 49.5 79.5 52.5 80 L 63.5 76 L 85.5 63 L 112 63 L 112 69 L 90.5 69 L 90 70.5 L 93.5 75 L 134.5 80 L 146.5 76 Q 160.8 63.3 179.5 55 L 182 58.5 L 141 85.5 Q 142.5 88.5 148.5 87 Q 149.8 84.7 154.5 86 L 165.5 88 L 175.5 92 Q 185.6 97.5 192.5 106 L 203 106 L 203 112 L 197.5 112 L 197 113.5 L 203 129.5 L 203 146.5 Q 198.8 166.8 185.5 178 Q 177.5 185.5 165.5 189 L 161.5 190 L 142.5 190 Q 123.8 185.7 113 173.5 Q 104.8 164.7 101 151.5 L 100 146.5 L 100 130.5 L 106 112 L 2.5 112 L 2 111.5 L 2 106 L 38 106 L 38 82.5 L 50.5 67 L 88.5 43 L 95.5 41 L 114.5 41 L 115.5 42 L 134.5 44 L 140.5 42 L 162.5 28 Z M 84 71 L 82 73 L 84 73 L 84 71 Z M 69 79 L 59 85 L 51 85 L 47 82 L 44 82 L 44 90 L 43 91 L 43 105 L 45 106 L 111 106 Q 120 95 135 89 Q 138 90 136 86 Q 132 84 123 85 L 109 82 L 96 82 L 91 79 L 69 79 Z M 146 92 Q 131 94 123 102 L 110 118 L 106 130 Q 108 136 105 138 Q 107 159 118 171 Q 127 180 142 184 L 162 184 Q 174 180 183 173 Q 193 164 197 149 L 197 129 Q 194 117 187 109 Q 180 99 169 95 L 158 92 L 146 92 Z "></path><path fill="rgb(255,255,255)" stroke="rgb(255,255,255)" stroke-width="1" opacity="1" d="M 39.5 34 Q 43.5 33.5 44 36.5 Q 44.3 41.3 47.5 43 L 53 45.5 L 51.5 49 Q 46.8 49.3 45 52.5 Q 44.8 57.3 41.5 59 L 38 57.5 L 33.5 50 L 28 47.5 L 29.5 44 L 36 42 L 39.5 34 Z M 41 45 L 39 47 L 42 48 Q 43 44 41 45 Z "></path><path fill="rgb(255,255,255)" stroke="rgb(255,255,255)" stroke-width="1" opacity="1" d="M 16.5 67 Q 20.9 65.5 20 68.5 L 24.5 76 L 30 77 Q 31 80.8 28.5 82 Q 23.8 82.3 22 85.5 Q 21.8 90.3 18.5 92 L 15 90.5 L 11.5 83 L 6 82 L 5 78.5 L 13 75 L 16.5 67 Z M 18 78 L 16 80 L 19 81 Q 20 77 18 78 Z "></path><path fill="rgb(255,255,255)" stroke="rgb(255,255,255)" stroke-width="1" opacity="1" d="M 103 86 L 109 86 L 109 92 L 103 92 L 103 86 Z "></path><path fill="rgb(255,255,255)" stroke="rgb(255,255,255)" stroke-width="1" opacity="1" d="M 61 96 L 66 96 L 66 102 L 61 102 L 61 96 Z "></path><path fill="rgb(170,41,47)" stroke="rgb(170,41,47)" stroke-width="1" opacity="1" d="M 128.5 109 L 132 109.5 L 128.5 110 L 128.5 109 Z "></path><path fill="rgb(170,41,47)" stroke="rgb(170,41,47)" stroke-width="1" opacity="1" d="M 151.5 109 L 156 109.5 L 151.5 110 L 151.5 109 Z "></path><path fill="rgb(170,41,47)" stroke="rgb(170,41,47)" stroke-width="1" opacity="1" d="M 159.5 111 L 161.5 114 L 159.5 111 Z "></path><path fill="rgb(170,41,47)" stroke="rgb(170,41,47)" stroke-width="1" opacity="1" d="M 121.5 114 L 120.5 116 L 121.5 114 Z "></path><path fill="rgb(170,41,47)" stroke="rgb(170,41,47)" stroke-width="1" opacity="1" d="M 130.5 115 L 154 115.5 L 130.5 116 L 130.5 115 Z "></path><path fill="rgb(170,41,47)" stroke="rgb(170,41,47)" stroke-width="1" opacity="1" d="M 155.5 116 L 158 119.5 L 157 119.5 L 155.5 116 Z "></path><path fill="rgb(170,41,47)" stroke="rgb(170,41,47)" stroke-width="1" opacity="1" d="M 119.5 117 L 120 158.5 L 119 158.5 L 119.5 117 Z "></path><path fill="rgb(170,41,47)" stroke="rgb(170,41,47)" stroke-width="1" opacity="1" d="M 126.5 118 L 126 119.5 L 125.5 157 L 125 119.5 L 126.5 118 Z "></path><path fill="rgb(170,41,47)" stroke="rgb(170,41,47)" stroke-width="1" opacity="1" d="M 164.5 120 L 165 136.5 L 164 136.5 L 164.5 120 Z "></path><path fill="rgb(170,41,47)" stroke="rgb(170,41,47)" stroke-width="1" opacity="1" d="M 170.5 132 L 173 132.5 L 170.5 133 L 170.5 132 Z "></path><path fill="rgb(170,41,47)" stroke="rgb(170,41,47)" stroke-width="1" opacity="1" d="M 176.5 132 L 179 132.5 L 176.5 133 L 176.5 132 Z "></path><path fill="rgb(170,41,47)" stroke="rgb(170,41,47)" stroke-width="1" opacity="1" d="M 182.5 134 L 184.5 137 L 182.5 134 Z "></path><path fill="rgb(170,41,47)" stroke="rgb(170,41,47)" stroke-width="1" opacity="1" d="M 158.5 138 L 159 143.5 L 156.5 145 L 156.5 144 L 158 143.5 L 158.5 138 Z "></path><path fill="rgb(170,41,47)" stroke="rgb(170,41,47)" stroke-width="1" opacity="1" d="M 178.5 139 L 179.5 141 L 178.5 139 Z "></path><path fill="rgb(170,41,47)" stroke="rgb(170,41,47)" stroke-width="1" opacity="1" d="M 169.5 141 L 168.5 143 L 169.5 141 Z "></path><path fill="rgb(170,41,47)" stroke="rgb(170,41,47)" stroke-width="1" opacity="1" d="M 166.5 146 L 165.5 148 L 166.5 146 Z "></path><path fill="rgb(170,41,47)" stroke="rgb(170,41,47)" stroke-width="1" opacity="1" d="M 180.5 150 L 181 152.5 L 180 152.5 L 180.5 150 Z "></path><path fill="rgb(170,41,47)" stroke="rgb(170,41,47)" stroke-width="1" opacity="1" d="M 186.5 152 L 187 154.5 L 186 154.5 L 186.5 152 Z "></path><path fill="rgb(170,41,47)" stroke="rgb(170,41,47)" stroke-width="1" opacity="1" d="M 145.5 153 L 146 159.5 L 145 159.5 L 145.5 153 Z "></path><path fill="rgb(170,41,47)" stroke="rgb(170,41,47)" stroke-width="1" opacity="1" d="M 151.5 155 L 152 157.5 L 151 157.5 L 151.5 155 Z "></path><path fill="rgb(170,41,47)" stroke="rgb(170,41,47)" stroke-width="1" opacity="1" d="M 126.5 158 L 128.5 161 L 126.5 158 Z "></path><path fill="rgb(170,41,47)" stroke="rgb(170,41,47)" stroke-width="1" opacity="1" d="M 152.5 159 L 153.5 161 L 152.5 159 Z "></path><path fill="rgb(170,41,47)" stroke="rgb(170,41,47)" stroke-width="1" opacity="1" d="M 132.5 161 L 145 161.5 L 132.5 162 L 132.5 161 Z "></path><path fill="rgb(170,41,47)" stroke="rgb(170,41,47)" stroke-width="1" opacity="1" d="M 156.5 161 L 176 161.5 L 156.5 162 L 156.5 161 Z "></path><path fill="rgb(170,41,47)" stroke="rgb(170,41,47)" stroke-width="1" opacity="1" d="M 121.5 162 L 123.5 165 L 121.5 162 Z "></path><path fill="rgb(170,41,47)" stroke="rgb(170,41,47)" stroke-width="1" opacity="1" d="M 183.5 163 L 182.5 165 L 183.5 163 Z "></path><path fill="rgb(170,41,47)" stroke="rgb(170,41,47)" stroke-width="1" opacity="1" d="M 125.5 165 L 126.5 167 L 125.5 165 Z "></path><path fill="rgb(170,41,47)" stroke="rgb(170,41,47)" stroke-width="1" opacity="1" d="M 128.5 167 L 178 167.5 L 128.5 168 L 128.5 167 Z "></path><path fill="rgb(95,85,85)" stroke="rgb(95,85,85)" stroke-width="1" opacity="1" d="M 41.5 46 L 40.5 48 L 41.5 46 Z "></path><path fill="rgb(95,85,85)" stroke="rgb(95,85,85)" stroke-width="1" opacity="1" d="M 126.5 49 L 129 49.5 L 126.5 50 L 126.5 49 Z "></path><path fill="rgb(95,85,85)" stroke="rgb(95,85,85)" stroke-width="1" opacity="1" d="M 112.5 63 L 113 69.5 L 112 69.5 L 112.5 63 Z "></path><path fill="rgb(95,85,85)" stroke="rgb(95,85,85)" stroke-width="1" opacity="1" d="M 19.5 66 L 20.5 68 L 19.5 66 Z "></path><path fill="rgb(95,85,85)" stroke="rgb(95,85,85)" stroke-width="1" opacity="1" d="M 97.5 75 L 100 75.5 L 97.5 76 L 97.5 75 Z "></path><path fill="rgb(95,85,85)" stroke="rgb(95,85,85)" stroke-width="1" opacity="1" d="M 29.5 76 L 30.5 78 L 29.5 76 Z "></path><path fill="rgb(95,85,85)" stroke="rgb(95,85,85)" stroke-width="1" opacity="1" d="M 17.5 78 L 18.5 80 L 17.5 78 Z "></path><path fill="rgb(95,85,85)" stroke="rgb(95,85,85)" stroke-width="1" opacity="1" d="M 69.5 79 L 89 79.5 L 69.5 80 L 69.5 79 Z "></path><path fill="rgb(95,85,85)" stroke="rgb(95,85,85)" stroke-width="1" opacity="1" d="M 102.5 86 L 103 92.5 L 102 92.5 L 102.5 86 Z "></path><path fill="rgb(95,85,85)" stroke="rgb(95,85,85)" stroke-width="1" opacity="1" d="M 60.5 95 L 67 95.5 L 60.5 96 L 60.5 95 Z "></path><path fill="rgb(95,85,85)" stroke="rgb(95,85,85)" stroke-width="1" opacity="1" d="M 117.5 98 L 111.5 105 L 117.5 98 Z "></path><path fill="rgb(95,85,85)" stroke="rgb(95,85,85)" stroke-width="1" opacity="1" d="M 60.5 102 L 67 102.5 L 60.5 103 L 60.5 102 Z "></path><path fill="rgb(95,85,85)" stroke="rgb(95,85,85)" stroke-width="1" opacity="1" d="M 1.5 105 L 37 105.5 L 1.5 106 L 1.5 105 Z "></path><path fill="rgb(95,85,85)" stroke="rgb(95,85,85)" stroke-width="1" opacity="1" d="M 44.5 105 L 110 105.5 L 44.5 106 L 44.5 105 Z "></path><path fill="rgb(95,85,85)" stroke="rgb(95,85,85)" stroke-width="1" opacity="1" d="M 193.5 105 L 204 105.5 L 193.5 106 L 193.5 105 Z "></path><path fill="rgb(95,85,85)" stroke="rgb(95,85,85)" stroke-width="1" opacity="1" d="M 84.5 112 L 105.5 112 L 106 113.5 L 104.5 113 L 84.5 113 L 84.5 112 Z "></path><path fill="rgb(95,85,85)" stroke="rgb(95,85,85)" stroke-width="1" opacity="1" d="M 99.5 132 L 100 136.5 L 99 136.5 L 99.5 132 Z "></path><path fill="rgb(95,85,85)" stroke="rgb(95,85,85)" stroke-width="1" opacity="1" d="M 99.5 140 L 100 144.5 L 99 144.5 L 99.5 140 Z "></path><path fill="rgb(95,85,85)" stroke="rgb(95,85,85)" stroke-width="1" opacity="1" d="M 181.5 172 L 180.5 174 L 181.5 172 Z "></path><path fill="rgb(95,85,85)" stroke="rgb(95,85,85)" stroke-width="1" opacity="1" d="M 112.5 173 L 116.5 178 L 112.5 173 Z "></path><path fill="rgb(95,85,85)" stroke="rgb(95,85,85)" stroke-width="1" opacity="1" d="M 190.5 173 L 185.5 179 L 190.5 173 Z "></path><path fill="rgb(144,144,144)" stroke="rgb(144,144,144)" stroke-width="1" opacity="1" d="M 107.5 40 L 110 40.5 L 107.5 41 L 107.5 40 Z "></path><path fill="rgb(144,144,144)" stroke="rgb(144,144,144)" stroke-width="1" opacity="1" d="M 46.5 41 L 47.5 43 L 46.5 41 Z "></path><path fill="rgb(144,144,144)" stroke="rgb(144,144,144)" stroke-width="1" opacity="1" d="M 101.5 46 L 105 46.5 L 101.5 47 L 101.5 46 Z "></path><path fill="rgb(144,144,144)" stroke="rgb(144,144,144)" stroke-width="1" opacity="1" d="M 129.5 49 L 137 49.5 L 129.5 50 L 129.5 49 Z "></path><path fill="rgb(144,144,144)" stroke="rgb(144,144,144)" stroke-width="1" opacity="1" d="M 33.5 50 L 35.5 53 L 33.5 50 Z "></path><path fill="rgb(144,144,144)" stroke="rgb(144,144,144)" stroke-width="1" opacity="1" d="M 49.5 67 L 48.5 69 L 49.5 67 Z "></path><path fill="rgb(144,144,144)" stroke="rgb(144,144,144)" stroke-width="1" opacity="1" d="M 91.5 69 L 112 69.5 L 91.5 70 L 90.5 71 L 91.5 69 Z "></path><path fill="rgb(144,144,144)" stroke="rgb(144,144,144)" stroke-width="1" opacity="1" d="M 151.5 71 L 150.5 73 L 151.5 71 Z "></path><path fill="rgb(144,144,144)" stroke="rgb(144,144,144)" stroke-width="1" opacity="1" d="M 51.5 74 L 51 75.5 L 50.5 77 L 50 75.5 L 51.5 74 Z "></path><path fill="rgb(144,144,144)" stroke="rgb(144,144,144)" stroke-width="1" opacity="1" d="M 42.5 75 L 40.5 78 L 42.5 75 Z "></path><path fill="rgb(144,144,144)" stroke="rgb(144,144,144)" stroke-width="1" opacity="1" d="M 110.5 76 L 113 76.5 L 110.5 77 L 110.5 76 Z "></path><path fill="rgb(144,144,144)" stroke="rgb(144,144,144)" stroke-width="1" opacity="1" d="M 97.5 82 L 104 82.5 L 97.5 83 L 97.5 82 Z "></path><path fill="rgb(144,144,144)" stroke="rgb(144,144,144)" stroke-width="1" opacity="1" d="M 37.5 85 L 38 104.5 L 37 104.5 L 37.5 85 Z "></path><path fill="rgb(144,144,144)" stroke="rgb(144,144,144)" stroke-width="1" opacity="1" d="M 125.5 85 L 128 85.5 L 125.5 86 L 125.5 85 Z "></path><path fill="rgb(144,144,144)" stroke="rgb(144,144,144)" stroke-width="1" opacity="1" d="M 143.5 86 L 146 86.5 L 143.5 87 L 143.5 86 Z "></path><path fill="rgb(144,144,144)" stroke="rgb(144,144,144)" stroke-width="1" opacity="1" d="M 103.5 92 L 109 92.5 L 103.5 93 L 103.5 92 Z "></path><path fill="rgb(144,144,144)" stroke="rgb(144,144,144)" stroke-width="1" opacity="1" d="M 147.5 92 L 155 92.5 L 147.5 93 L 147.5 92 Z "></path><path fill="rgb(144,144,144)" stroke="rgb(144,144,144)" stroke-width="1" opacity="1" d="M 121.5 95 L 120.5 97 L 121.5 95 Z "></path><path fill="rgb(144,144,144)" stroke="rgb(144,144,144)" stroke-width="1" opacity="1" d="M 186.5 99 L 190.5 104 L 186.5 99 Z "></path><path fill="rgb(144,144,144)" stroke="rgb(144,144,144)" stroke-width="1" opacity="1" d="M 177.5 100 L 178.5 102 L 177.5 100 Z "></path><path fill="rgb(144,144,144)" stroke="rgb(144,144,144)" stroke-width="1" opacity="1" d="M 182.5 104 L 184.5 107 L 182.5 104 Z "></path><path fill="rgb(144,144,144)" stroke="rgb(144,144,144)" stroke-width="1" opacity="1" d="M 1.5 106 L 2 111.5 L 1 111.5 L 1.5 106 Z "></path><path fill="rgb(144,144,144)" stroke="rgb(144,144,144)" stroke-width="1" opacity="1" d="M 203.5 133 L 204 135.5 L 203 135.5 L 203.5 133 Z "></path><path fill="rgb(144,144,144)" stroke="rgb(144,144,144)" stroke-width="1" opacity="1" d="M 99.5 137 L 100 139.5 L 99 139.5 L 99.5 137 Z "></path><path fill="rgb(144,144,144)" stroke="rgb(144,144,144)" stroke-width="1" opacity="1" d="M 203.5 141 L 204 143.5 L 203 143.5 L 203.5 141 Z "></path><path fill="rgb(144,144,144)" stroke="rgb(144,144,144)" stroke-width="1" opacity="1" d="M 115.5 166 L 116.5 168 L 115.5 166 Z "></path><path fill="rgb(144,144,144)" stroke="rgb(144,144,144)" stroke-width="1" opacity="1" d="M 187.5 166 L 186.5 168 L 187.5 166 Z "></path><path fill="rgb(144,144,144)" stroke="rgb(144,144,144)" stroke-width="1" opacity="1" d="M 109.5 169 L 110.5 171 L 109.5 169 Z "></path><path fill="rgb(144,144,144)" stroke="rgb(144,144,144)" stroke-width="1" opacity="1" d="M 122.5 173 L 123.5 175 L 122.5 173 Z "></path><path fill="rgb(144,144,144)" stroke="rgb(144,144,144)" stroke-width="1" opacity="1" d="M 156.5 190 L 159 190.5 L 156.5 191 L 156.5 190 Z "></path><path fill="rgb(219,49,56)" stroke="rgb(219,49,56)" stroke-width="1" opacity="1" d="M 132.5 109 L 150.5 109 Q 151.8 111.2 156.5 110 L 162 114.5 L 164 118.5 L 164.5 137 Q 167.6 132.1 175.5 132 Q 182.1 132.9 185 137.5 Q 188.7 141.8 187 151.5 L 185 160.5 L 180.5 166 L 178.5 167 L 127.5 167 L 121 161.5 L 120 159.5 L 120 116.5 L 123.5 112 L 126.5 110 Q 131.3 111.2 132.5 109 Z M 131 115 L 125 120 L 125 157 L 126 159 Q 131 164 145 162 L 146 161 Q 145 154 147 151 L 159 144 Q 160 139 158 138 L 158 119 L 154 115 L 131 115 Z M 173 138 L 170 139 L 167 146 L 165 148 L 152 153 L 151 156 L 152 160 L 157 162 L 176 162 L 180 158 L 181 153 Q 183 144 180 141 Q 178 137 173 138 Z "></path></svg>