<svg width="246" height="304" version="1.1" xmlns="http://www.w3.org/2000/svg"><path fill="rgb(209,48,54)" stroke="rgb(209,48,54)" stroke-width="1" opacity="1" d="M 67.5 133 L 73 137.5 L 74 139.5 L 62 151.5 L 62 178.5 L 59.5 182 L 26.5 182 L 25 180.5 L 24 178.5 L 24 148.5 L 27.5 145 L 54.5 145 L 67.5 133 Z M 34 154 L 34 173 L 52 173 L 52 163 L 47 167 L 40 161 L 45 155 L 34 154 Z "></path><path fill="rgb(209,48,54)" stroke="rgb(209,48,54)" stroke-width="1" opacity="1" d="M 169.5 133 L 176 138.5 L 164 151.5 L 164 179.5 L 161.5 182 L 128.5 182 L 127 180.5 L 126 178.5 L 126 148.5 L 129.5 145 L 156.5 145 L 169.5 133 Z M 136 154 L 136 173 L 154 173 L 154 163 L 149 167 L 142 161 L 147 155 L 136 154 Z "></path><path fill="rgb(209,48,54)" stroke="rgb(209,48,54)" stroke-width="1" opacity="1" d="M 67.5 179 L 74 185.5 L 62 197.5 L 62 225.5 L 58.5 229 L 27.5 229 L 24 225.5 L 24 195.5 L 26.5 192 L 28.5 191 L 55.5 191 L 67.5 179 Z M 34 201 L 34 219 L 52 219 L 52 209 L 47 213 L 44 211 L 41 208 L 40 207 L 45 202 L 34 201 Z "></path><path fill="rgb(209,48,54)" stroke="rgb(209,48,54)" stroke-width="1" opacity="1" d="M 169.5 179 L 174 182 L 176 185.5 L 172 191 L 164 197.5 L 164 225.5 L 160.5 229 L 129.5 229 L 126 225.5 L 126 194.5 L 129.5 191 L 157.5 191 L 169.5 179 Z M 136 201 L 136 219 L 154 219 L 154 209 L 149 213 L 142 208 L 147 202 L 136 201 Z "></path><path fill="rgb(209,48,54)" stroke="rgb(209,48,54)" stroke-width="1" opacity="1" d="M 66.5 226 L 68.5 226 L 74 231.5 L 62 244.5 L 62 271.5 L 58.5 275 L 27.5 275 L 24 271.5 L 24 241.5 L 27.5 238 L 54.5 238 L 66.5 226 Z M 34 247 L 34 266 L 52 266 L 52 256 L 48 259 L 46 259 L 40 254 L 45 248 L 34 247 Z "></path><path fill="rgb(117,117,117)" stroke="rgb(117,117,117)" stroke-width="1" opacity="1" d="M 15.5 6 L 32 6.5 L 15.5 7 L 15.5 6 Z "></path><path fill="rgb(117,117,117)" stroke="rgb(117,117,117)" stroke-width="1" opacity="1" d="M 217.5 6 L 226 6.5 L 217.5 7 L 217.5 6 Z "></path><path fill="rgb(117,117,117)" stroke="rgb(117,117,117)" stroke-width="1" opacity="1" d="M 234.5 11 L 235.5 13 L 234.5 11 Z "></path><path fill="rgb(117,117,117)" stroke="rgb(117,117,117)" stroke-width="1" opacity="1" d="M 8.5 12 L 7.5 14 L 8.5 12 Z "></path><path fill="rgb(117,117,117)" stroke="rgb(117,117,117)" stroke-width="1" opacity="1" d="M 6.5 15 L 7 23.5 L 6 23.5 L 6.5 15 Z "></path><path fill="rgb(117,117,117)" stroke="rgb(117,117,117)" stroke-width="1" opacity="1" d="M 18.5 15 L 226 15.5 L 18.5 16 L 18.5 15 Z "></path><path fill="rgb(117,117,117)" stroke="rgb(117,117,117)" stroke-width="1" opacity="1" d="M 237.5 17 L 238 49.5 L 237 49.5 L 237.5 17 Z "></path><path fill="rgb(117,117,117)" stroke="rgb(117,117,117)" stroke-width="1" opacity="1" d="M 228.5 18 L 229 241.5 L 227.5 243 L 200.5 243 L 200.5 242 L 227.5 242 L 228 241.5 L 228.5 18 Z "></path><path fill="rgb(117,117,117)" stroke="rgb(117,117,117)" stroke-width="1" opacity="1" d="M 100.5 24 L 142 24.5 L 100.5 25 L 100.5 24 Z "></path><path fill="rgb(117,117,117)" stroke="rgb(117,117,117)" stroke-width="1" opacity="1" d="M 82.5 29 L 81.5 31 L 82.5 29 Z "></path><path fill="rgb(117,117,117)" stroke="rgb(117,117,117)" stroke-width="1" opacity="1" d="M 154.5 29 L 157.5 33 L 154.5 29 Z "></path><path fill="rgb(117,117,117)" stroke="rgb(117,117,117)" stroke-width="1" opacity="1" d="M 78.5 32 L 76.5 35 L 78.5 32 Z "></path><path fill="rgb(117,117,117)" stroke="rgb(117,117,117)" stroke-width="1" opacity="1" d="M 93.5 34 L 96 34.5 L 93.5 35 L 93.5 34 Z "></path><path fill="rgb(117,117,117)" stroke="rgb(117,117,117)" stroke-width="1" opacity="1" d="M 112.5 34 L 113 55.5 L 111.5 57 L 71.5 57 L 71.5 56 L 112 56 L 112.5 34 Z "></path><path fill="rgb(117,117,117)" stroke="rgb(117,117,117)" stroke-width="1" opacity="1" d="M 159.5 35 L 160.5 37 L 159.5 35 Z "></path><path fill="rgb(117,117,117)" stroke="rgb(117,117,117)" stroke-width="1" opacity="1" d="M 88.5 36 L 87.5 38 L 88.5 36 Z "></path><path fill="rgb(117,117,117)" stroke="rgb(117,117,117)" stroke-width="1" opacity="1" d="M 148.5 36 L 150.5 39 L 148.5 36 Z "></path><path fill="rgb(117,117,117)" stroke="rgb(117,117,117)" stroke-width="1" opacity="1" d="M 71.5 38 L 68.5 42 L 71.5 38 Z "></path><path fill="rgb(117,117,117)" stroke="rgb(117,117,117)" stroke-width="1" opacity="1" d="M 162.5 39 L 163.5 41 L 162.5 39 Z "></path><path fill="rgb(117,117,117)" stroke="rgb(117,117,117)" stroke-width="1" opacity="1" d="M 83.5 40 L 81.5 43 L 83.5 40 Z "></path><path fill="rgb(117,117,117)" stroke="rgb(117,117,117)" stroke-width="1" opacity="1" d="M 152.5 41 L 153.5 43 L 152.5 41 Z "></path><path fill="rgb(117,117,117)" stroke="rgb(117,117,117)" stroke-width="1" opacity="1" d="M 165.5 43 L 166.5 45 L 165.5 43 Z "></path><path fill="rgb(117,117,117)" stroke="rgb(117,117,117)" stroke-width="1" opacity="1" d="M 63.5 45 L 60.5 49 L 63.5 45 Z "></path><path fill="rgb(117,117,117)" stroke="rgb(117,117,117)" stroke-width="1" opacity="1" d="M 155.5 45 L 156.5 47 L 155.5 45 Z "></path><path fill="rgb(117,117,117)" stroke="rgb(117,117,117)" stroke-width="1" opacity="1" d="M 76.5 46 L 74.5 49 L 76.5 46 Z "></path><path fill="rgb(117,117,117)" stroke="rgb(117,117,117)" stroke-width="1" opacity="1" d="M 170.5 50 L 171.5 52 L 170.5 50 Z "></path><path fill="rgb(117,117,117)" stroke="rgb(117,117,117)" stroke-width="1" opacity="1" d="M 56.5 51 L 54.5 54 L 56.5 51 Z "></path><path fill="rgb(117,117,117)" stroke="rgb(117,117,117)" stroke-width="1" opacity="1" d="M 69.5 52 L 66.5 56 L 69.5 52 Z "></path><path fill="rgb(117,117,117)" stroke="rgb(117,117,117)" stroke-width="1" opacity="1" d="M 160.5 52 L 161.5 54 L 160.5 52 Z "></path><path fill="rgb(117,117,117)" stroke="rgb(117,117,117)" stroke-width="1" opacity="1" d="M 172.5 53 L 173.5 55 L 172.5 53 Z "></path><path fill="rgb(117,117,117)" stroke="rgb(117,117,117)" stroke-width="1" opacity="1" d="M 162.5 55 L 163.5 57 L 155 56.5 L 162.5 55 Z "></path><path fill="rgb(117,117,117)" stroke="rgb(117,117,117)" stroke-width="1" opacity="1" d="M 122.5 56 L 128 56.5 L 122.5 57 L 122.5 56 Z "></path><path fill="rgb(117,117,117)" stroke="rgb(117,117,117)" stroke-width="1" opacity="1" d="M 57.5 65 L 80 65.5 L 57.5 66 L 57.5 65 Z "></path><path fill="rgb(117,117,117)" stroke="rgb(117,117,117)" stroke-width="1" opacity="1" d="M 47.5 66 L 48 68.5 L 47 68.5 L 47.5 66 Z "></path><path fill="rgb(117,117,117)" stroke="rgb(117,117,117)" stroke-width="1" opacity="1" d="M 149.5 66 L 174 66.5 L 149.5 67 L 149.5 66 Z "></path><path fill="rgb(117,117,117)" stroke="rgb(117,117,117)" stroke-width="1" opacity="1" d="M 45.5 67 L 44 69.5 L 43.5 71 L 43 69.5 L 45.5 67 Z "></path><path fill="rgb(117,117,117)" stroke="rgb(117,117,117)" stroke-width="1" opacity="1" d="M 208.5 67 L 210 70.5 L 209 70.5 L 208.5 67 Z "></path><path fill="rgb(117,117,117)" stroke="rgb(117,117,117)" stroke-width="1" opacity="1" d="M 56.5 68 L 57 70.5 L 56 70.5 L 56.5 68 Z "></path><path fill="rgb(117,117,117)" stroke="rgb(117,117,117)" stroke-width="1" opacity="1" d="M 186.5 70 L 189 71.5 L 187.5 71 L 186.5 70 Z "></path><path fill="rgb(117,117,117)" stroke="rgb(117,117,117)" stroke-width="1" opacity="1" d="M 33.5 71 L 34 80.5 L 33 80.5 L 33.5 71 Z "></path><path fill="rgb(117,117,117)" stroke="rgb(117,117,117)" stroke-width="1" opacity="1" d="M 75.5 71 L 76 80 L 89 80 L 89 71.5 L 90 71.5 L 90 79.5 L 88.5 81 L 79.5 81 L 78.5 82 L 77.5 81 L 66 80.5 L 75 80 L 75.5 71 Z "></path><path fill="rgb(117,117,117)" stroke="rgb(117,117,117)" stroke-width="1" opacity="1" d="M 198.5 75 L 201 76.5 L 200.5 80 L 200 76 L 198.5 75 Z "></path><path fill="rgb(117,117,117)" stroke="rgb(117,117,117)" stroke-width="1" opacity="1" d="M 131.5 80 L 145 80.5 L 131.5 81 L 131.5 80 Z "></path><path fill="rgb(117,117,117)" stroke="rgb(117,117,117)" stroke-width="1" opacity="1" d="M 158.5 80 L 169 80.5 L 158.5 81 L 158.5 80 Z "></path><path fill="rgb(117,117,117)" stroke="rgb(117,117,117)" stroke-width="1" opacity="1" d="M 187.5 80 L 188 82.5 L 187 82.5 L 187.5 80 Z "></path><path fill="rgb(117,117,117)" stroke="rgb(117,117,117)" stroke-width="1" opacity="1" d="M 48.5 81 L 47.5 83 L 48.5 81 Z "></path><path fill="rgb(117,117,117)" stroke="rgb(117,117,117)" stroke-width="1" opacity="1" d="M 60.5 82 L 59.5 84 L 60.5 82 Z "></path><path fill="rgb(117,117,117)" stroke="rgb(117,117,117)" stroke-width="1" opacity="1" d="M 151.5 83 L 150.5 85 L 151.5 83 Z "></path><path fill="rgb(117,117,117)" stroke="rgb(117,117,117)" stroke-width="1" opacity="1" d="M 175.5 83 L 176.5 85 L 175.5 83 Z "></path><path fill="rgb(117,117,117)" stroke="rgb(117,117,117)" stroke-width="1" opacity="1" d="M 57.5 84 L 56.5 86 L 57.5 84 Z "></path><path fill="rgb(117,117,117)" stroke="rgb(117,117,117)" stroke-width="1" opacity="1" d="M 85.5 85 L 89.5 90 L 85.5 85 Z "></path><path fill="rgb(117,117,117)" stroke="rgb(117,117,117)" stroke-width="1" opacity="1" d="M 189.5 85 L 190.5 87 L 189.5 85 Z "></path><path fill="rgb(117,117,117)" stroke="rgb(117,117,117)" stroke-width="1" opacity="1" d="M 179.5 86 L 180.5 88 L 179.5 86 Z "></path><path fill="rgb(117,117,117)" stroke="rgb(117,117,117)" stroke-width="1" opacity="1" d="M 68.5 89 L 73 89.5 L 68.5 90 L 68.5 89 Z "></path><path fill="rgb(117,117,117)" stroke="rgb(117,117,117)" stroke-width="1" opacity="1" d="M 161.5 89 L 166 89.5 L 161.5 90 L 161.5 89 Z "></path><path fill="rgb(117,117,117)" stroke="rgb(117,117,117)" stroke-width="1" opacity="1" d="M 197.5 89 L 201 90.5 L 200.5 96 L 200 90 Q 196.7 90.8 197.5 89 Z "></path><path fill="rgb(117,117,117)" stroke="rgb(117,117,117)" stroke-width="1" opacity="1" d="M 182.5 90 L 183.5 92 L 182.5 90 Z "></path><path fill="rgb(117,117,117)" stroke="rgb(117,117,117)" stroke-width="1" opacity="1" d="M 62.5 92 L 59.5 96 L 62.5 92 Z "></path><path fill="rgb(117,117,117)" stroke="rgb(117,117,117)" stroke-width="1" opacity="1" d="M 155.5 92 L 152.5 96 L 155.5 92 Z "></path><path fill="rgb(117,117,117)" stroke="rgb(117,117,117)" stroke-width="1" opacity="1" d="M 44.5 94 L 46.5 97 L 44.5 94 Z "></path><path fill="rgb(117,117,117)" stroke="rgb(117,117,117)" stroke-width="1" opacity="1" d="M 174.5 95 L 175.5 97 L 174.5 95 Z "></path><path fill="rgb(117,117,117)" stroke="rgb(117,117,117)" stroke-width="1" opacity="1" d="M 209.5 95 L 210 98.5 L 209 98.5 L 209.5 95 Z "></path><path fill="rgb(117,117,117)" stroke="rgb(117,117,117)" stroke-width="1" opacity="1" d="M 93.5 97 L 94.5 98 L 140 98.5 L 94.5 99 L 93.5 97 Z "></path><path fill="rgb(117,117,117)" stroke="rgb(117,117,117)" stroke-width="1" opacity="1" d="M 67.5 98 Q 74.3 96.3 76 99.5 L 75.5 108 L 75 99 L 67.5 99 L 67.5 98 Z "></path><path fill="rgb(117,117,117)" stroke="rgb(117,117,117)" stroke-width="1" opacity="1" d="M 159.5 98 L 167.5 98 L 169 99.5 L 168.5 108 L 168 99 L 159.5 99 L 159.5 98 Z "></path><path fill="rgb(117,117,117)" stroke="rgb(117,117,117)" stroke-width="1" opacity="1" d="M 186.5 98 L 198 98.5 L 186.5 99 L 186.5 98 Z "></path><path fill="rgb(117,117,117)" stroke="rgb(117,117,117)" stroke-width="1" opacity="1" d="M 37.5 100 L 41.5 105 L 37.5 100 Z "></path><path fill="rgb(117,117,117)" stroke="rgb(117,117,117)" stroke-width="1" opacity="1" d="M 84.5 100 L 85 106.5 L 84 106.5 L 84.5 100 Z "></path><path fill="rgb(117,117,117)" stroke="rgb(117,117,117)" stroke-width="1" opacity="1" d="M 208.5 100 L 207.5 102 L 208.5 100 Z "></path><path fill="rgb(117,117,117)" stroke="rgb(117,117,117)" stroke-width="1" opacity="1" d="M 177.5 101 L 178 105.5 L 177 105.5 L 177.5 101 Z "></path><path fill="rgb(117,117,117)" stroke="rgb(117,117,117)" stroke-width="1" opacity="1" d="M 203.5 105 L 202.5 107 L 203.5 105 Z "></path><path fill="rgb(117,117,117)" stroke="rgb(117,117,117)" stroke-width="1" opacity="1" d="M 198.5 107 L 201 107.5 L 198.5 108 L 198.5 107 Z "></path><path fill="rgb(117,117,117)" stroke="rgb(117,117,117)" stroke-width="1" opacity="1" d="M 94.5 108 L 97 108.5 L 93.5 110 L 94.5 108 Z "></path><path fill="rgb(117,117,117)" stroke="rgb(117,117,117)" stroke-width="1" opacity="1" d="M 137.5 108 L 141 108.5 L 137.5 109 L 137.5 108 Z "></path><path fill="rgb(117,117,117)" stroke="rgb(117,117,117)" stroke-width="1" opacity="1" d="M 175.5 110 L 171.5 115 L 175.5 110 Z "></path><path fill="rgb(117,117,117)" stroke="rgb(117,117,117)" stroke-width="1" opacity="1" d="M 152.5 111 L 155.5 115 L 152.5 111 Z "></path><path fill="rgb(117,117,117)" stroke="rgb(117,117,117)" stroke-width="1" opacity="1" d="M 60.5 112 L 61.5 114 L 60.5 112 Z "></path><path fill="rgb(117,117,117)" stroke="rgb(117,117,117)" stroke-width="1" opacity="1" d="M 184.5 113 L 183.5 115 L 184.5 113 Z "></path><path fill="rgb(117,117,117)" stroke="rgb(117,117,117)" stroke-width="1" opacity="1" d="M 78.5 114 L 77.5 116 L 78.5 114 Z "></path><path fill="rgb(117,117,117)" stroke="rgb(117,117,117)" stroke-width="1" opacity="1" d="M 144.5 116 L 145.5 118 L 144.5 116 Z "></path><path fill="rgb(117,117,117)" stroke="rgb(117,117,117)" stroke-width="1" opacity="1" d="M 52.5 117 L 57.5 123 L 52.5 117 Z "></path><path fill="rgb(117,117,117)" stroke="rgb(117,117,117)" stroke-width="1" opacity="1" d="M 87.5 119 L 86.5 121 L 87.5 119 Z "></path><path fill="rgb(117,117,117)" stroke="rgb(117,117,117)" stroke-width="1" opacity="1" d="M 149.5 121 L 150.5 123 L 149.5 121 Z "></path><path fill="rgb(117,117,117)" stroke="rgb(117,117,117)" stroke-width="1" opacity="1" d="M 176.5 122 L 175.5 124 L 176.5 122 Z "></path><path fill="rgb(117,117,117)" stroke="rgb(117,117,117)" stroke-width="1" opacity="1" d="M 67.5 126 L 74 126.5 L 67.5 127 L 67.5 126 Z "></path><path fill="rgb(117,117,117)" stroke="rgb(117,117,117)" stroke-width="1" opacity="1" d="M 160.5 126 L 167 126.5 L 160.5 127 L 160.5 126 Z "></path><path fill="rgb(117,117,117)" stroke="rgb(117,117,117)" stroke-width="1" opacity="1" d="M 81.5 149 L 116.5 149 L 118 150.5 L 117.5 159 L 117 150 L 81.5 150 L 81.5 149 Z "></path><path fill="rgb(117,117,117)" stroke="rgb(117,117,117)" stroke-width="1" opacity="1" d="M 183.5 149 L 218.5 149 L 220 150.5 L 219.5 159 L 219 150 L 183.5 150 L 183.5 149 Z "></path><path fill="rgb(117,117,117)" stroke="rgb(117,117,117)" stroke-width="1" opacity="1" d="M 71.5 168 L 116.5 168 L 118 169.5 Q 119.7 176.3 116.5 178 L 71 177.5 L 117 177 L 117 169.5 L 116.5 169 L 71.5 169 L 71.5 168 Z "></path><path fill="rgb(117,117,117)" stroke="rgb(117,117,117)" stroke-width="1" opacity="1" d="M 173.5 168 L 218.5 168 L 220 169.5 Q 221.8 176.3 218.5 178 L 173 177.5 L 219 177 L 219 169.5 L 218.5 169 L 173.5 169 L 173.5 168 Z "></path><path fill="rgb(117,117,117)" stroke="rgb(117,117,117)" stroke-width="1" opacity="1" d="M 171.5 180 L 172.5 182 L 171.5 180 Z "></path><path fill="rgb(117,117,117)" stroke="rgb(117,117,117)" stroke-width="1" opacity="1" d="M 170.5 191 L 164.5 198 L 170.5 191 Z "></path><path fill="rgb(117,117,117)" stroke="rgb(117,117,117)" stroke-width="1" opacity="1" d="M 117.5 197 L 118 204.5 L 116.5 206 L 80.5 206 L 80.5 205 L 116.5 205 L 117 204.5 L 117.5 197 Z "></path><path fill="rgb(117,117,117)" stroke="rgb(117,117,117)" stroke-width="1" opacity="1" d="M 219.5 197 L 220 204.5 L 218.5 206 L 182.5 206 L 182.5 205 L 218.5 205 L 219 204.5 L 219.5 197 Z "></path><path fill="rgb(117,117,117)" stroke="rgb(117,117,117)" stroke-width="1" opacity="1" d="M 153.5 208 L 150.5 212 L 153.5 208 Z "></path><path fill="rgb(117,117,117)" stroke="rgb(117,117,117)" stroke-width="1" opacity="1" d="M 71.5 214 L 116.5 214 L 118 215.5 L 117.5 224 L 117 215 L 71.5 215 L 71.5 214 Z "></path><path fill="rgb(117,117,117)" stroke="rgb(117,117,117)" stroke-width="1" opacity="1" d="M 173.5 214 L 218.5 214 L 220 215.5 L 219.5 224 L 219 215 L 173.5 215 L 173.5 214 Z "></path><path fill="rgb(117,117,117)" stroke="rgb(117,117,117)" stroke-width="1" opacity="1" d="M 80.5 242 L 116.5 242 L 118 243.5 L 117.5 251 L 117 243 L 80.5 243 L 80.5 242 Z "></path><path fill="rgb(117,117,117)" stroke="rgb(117,117,117)" stroke-width="1" opacity="1" d="M 192.5 245 L 189.5 249 L 192.5 245 Z "></path><path fill="rgb(117,117,117)" stroke="rgb(117,117,117)" stroke-width="1" opacity="1" d="M 237.5 249 L 193.5 294 L 21 293.5 L 193.5 293 L 237.5 249 Z "></path><path fill="rgb(117,117,117)" stroke="rgb(117,117,117)" stroke-width="1" opacity="1" d="M 196.5 254 L 197 256.5 L 196 256.5 L 196.5 254 Z "></path><path fill="rgb(117,117,117)" stroke="rgb(117,117,117)" stroke-width="1" opacity="1" d="M 117.5 262 L 118 269.5 L 116.5 271 L 71.5 271 L 71.5 270 L 116.5 270 L 117 269.5 L 117.5 262 Z "></path><path fill="rgb(117,117,117)" stroke="rgb(117,117,117)" stroke-width="1" opacity="1" d="M 186.5 263 L 187 283.5 L 186 283.5 L 186.5 263 Z "></path><path fill="rgb(117,117,117)" stroke="rgb(117,117,117)" stroke-width="1" opacity="1" d="M 6.5 275 L 7 284.5 L 6 284.5 L 6.5 275 Z "></path><path fill="rgb(117,117,117)" stroke="rgb(117,117,117)" stroke-width="1" opacity="1" d="M 8.5 287 L 11.5 291 L 8.5 287 Z "></path><path fill="rgb(20,20,20)" stroke="rgb(20,20,20)" stroke-width="1" opacity="1" d="M 0 0 L 246 0 L 246 304 L 0 304 L 0 0 Z M 16 6 L 14 7 L 6 16 L 6 285 L 8 288 L 15 293 Q 20 292 22 294 L 194 294 L 238 250 L 238 18 L 236 13 L 231 7 L 226 6 L 16 6 Z "></path><path fill="rgb(20,20,20)" stroke="rgb(20,20,20)" stroke-width="1" opacity="1" d="M 17.5 16 L 226.5 16 L 228 17.5 L 228 241.5 L 227.5 242 L 200.5 242 L 195.5 243 L 189 248.5 L 187 251.5 L 186 284 L 17.5 284 L 16 282.5 L 15 280.5 L 15 18.5 L 17.5 16 Z M 101 24 L 100 25 L 91 25 L 86 27 L 52 56 L 45 57 L 41 59 Q 34 63 33 72 L 34 96 L 37 101 Q 40 105 47 107 L 52 118 Q 57 125 68 127 L 79 126 L 87 121 L 93 111 L 98 108 L 137 108 L 141 109 L 144 117 Q 149 125 161 127 L 167 127 L 176 124 Q 183 119 186 110 L 188 108 L 201 108 L 203 107 L 210 99 L 210 69 L 201 64 L 177 58 L 158 33 L 152 27 L 142 24 L 101 24 Z M 68 133 L 55 145 L 28 145 L 24 149 L 24 179 L 25 181 L 27 182 L 60 182 L 62 179 L 62 152 L 74 140 L 73 138 L 68 133 Z M 170 133 L 157 145 L 130 145 L 126 149 L 126 179 L 127 181 L 129 182 L 162 182 L 164 180 L 164 152 L 176 139 L 170 133 Z M 82 149 L 80 151 L 80 159 L 118 159 L 118 159 L 118 151 L 117 149 L 82 149 Z M 184 149 L 182 151 L 182 159 L 220 159 L 220 159 L 220 151 L 219 149 L 184 149 Z M 71 168 L 71 178 L 72 178 L 117 178 Q 120 176 118 170 L 117 168 L 71 168 Z M 173 168 L 173 178 L 174 178 L 219 178 Q 222 176 220 170 L 219 168 L 173 168 Z M 68 179 L 56 191 L 29 191 L 27 192 L 24 196 L 24 226 L 28 229 L 59 229 L 62 226 L 62 198 L 74 186 L 68 179 Z M 170 179 L 158 191 L 130 191 L 126 195 L 126 226 L 130 229 L 161 229 L 164 226 L 164 199 L 176 186 L 175 184 L 170 179 Z M 80 196 L 80 206 L 81 206 L 117 206 Q 120 204 118 198 L 117 196 L 80 196 Z M 182 196 L 182 206 L 183 206 L 219 206 Q 222 204 220 198 L 219 196 L 182 196 Z M 71 214 L 71 224 L 118 224 L 118 224 L 118 216 L 117 214 L 71 214 Z M 173 214 L 173 224 L 220 224 L 220 224 L 220 216 L 219 214 L 173 214 Z M 67 226 L 55 238 L 28 238 L 24 242 L 24 272 L 28 275 L 59 275 L 62 272 L 62 245 L 74 232 L 69 226 L 67 226 Z M 80 242 L 80 252 L 81 252 L 117 252 Q 120 250 118 244 L 117 242 L 80 242 Z M 71 261 L 71 271 L 72 271 L 117 271 Q 120 269 118 263 L 117 261 L 71 261 Z "></path><path fill="rgb(20,20,20)" stroke="rgb(20,20,20)" stroke-width="1" opacity="1" d="M 96.5 34 L 112 34 L 112 56 L 67 55.5 L 86.5 38 L 96.5 34 Z "></path><path fill="rgb(20,20,20)" stroke="rgb(20,20,20)" stroke-width="1" opacity="1" d="M 122 34 L 142.5 34 Q 149 35.5 152 40.5 L 162 56 L 155.5 56 L 154.5 57 L 128.5 57 L 122 56 L 122 34 Z "></path><path fill="rgb(20,20,20)" stroke="rgb(20,20,20)" stroke-width="1" opacity="1" d="M 57 66 L 148.5 66 L 149.5 67 L 175.5 67 L 188 71 Q 185.9 74.3 187 82.5 L 190.5 87 L 193.5 89 L 200 90 Q 201.8 96.1 198.5 98 L 186.5 98 L 186 95.5 L 179.5 86 L 168.5 80 L 158.5 80 Q 148.8 82.8 144 90.5 L 141 98 L 94.5 98 L 93 96.5 Q 91.1 88.8 85.5 85 L 79 81.5 L 88.5 81 L 90 79.5 L 90 71 L 75 71 L 75 80 L 66.5 80 Q 56.6 82.1 52 89.5 L 47.5 97 Q 41.6 93.8 43 84 Q 50.9 83.4 54 76.5 Q 57.8 72.9 57 66 Z M 131 71 L 131 81 L 145 81 L 145 71 L 131 71 Z "></path><path fill="rgb(20,20,20)" stroke="rgb(20,20,20)" stroke-width="1" opacity="1" d="M 46.5 67 L 47 69.5 L 44.5 73 Q 42.3 73.8 43 71.5 L 46.5 67 Z "></path><path fill="rgb(20,20,20)" stroke="rgb(20,20,20)" stroke-width="1" opacity="1" d="M 197.5 76 Q 202.1 74.8 200 80 L 196 78.5 L 197.5 76 Z "></path><path fill="rgb(20,20,20)" stroke="rgb(20,20,20)" stroke-width="1" opacity="1" d="M 67.5 90 L 74.5 90 L 82 95.5 Q 85.3 99.2 84 107.5 L 79.5 114 Q 76 118 67.5 117 L 59 110.5 Q 56.4 107.6 57 101.5 Q 58.5 95 63.5 92 L 67.5 90 Z M 68 98 L 66 100 L 66 108 L 76 108 L 76 100 Q 74 96 68 98 Z "></path><path fill="rgb(20,20,20)" stroke="rgb(20,20,20)" stroke-width="1" opacity="1" d="M 159.5 90 Q 170.6 88.4 174 94.5 Q 178 98 177 106.5 Q 175.6 112.6 170.5 115 Q 167.5 118 160.5 117 L 152 110.5 Q 149 107.5 150 100.5 Q 151.6 93.6 157.5 91 L 159.5 90 Z M 159 98 L 159 108 L 169 108 L 169 100 L 168 98 L 159 98 Z "></path><path fill="rgb(20,20,20)" stroke="rgb(20,20,20)" stroke-width="1" opacity="1" d="M 34 154 L 45 154.5 L 40 160.5 L 46.5 167 L 52 162.5 L 52 173 L 34 173 L 34 154 Z "></path><path fill="rgb(20,20,20)" stroke="rgb(20,20,20)" stroke-width="1" opacity="1" d="M 136 154 L 147 154.5 L 142 160.5 L 148.5 167 L 154 162.5 L 154 173 L 136 173 L 136 154 Z "></path><path fill="rgb(20,20,20)" stroke="rgb(20,20,20)" stroke-width="1" opacity="1" d="M 34 201 L 45 201.5 L 40 206.5 L 41 207.5 L 43.5 211 L 46.5 213 L 52 208.5 L 52 219 L 34 219 L 34 201 Z "></path><path fill="rgb(20,20,20)" stroke="rgb(20,20,20)" stroke-width="1" opacity="1" d="M 136 201 L 147 201.5 L 142 207.5 L 148.5 213 L 153.5 209 L 154 219 L 136 219 L 136 201 Z "></path><path fill="rgb(20,20,20)" stroke="rgb(20,20,20)" stroke-width="1" opacity="1" d="M 34 247 L 45 247.5 L 40 253.5 L 45.5 259 L 47.5 259 L 52 255.5 L 52 266 L 34 266 L 34 247 Z "></path><path fill="rgb(20,20,20)" stroke="rgb(20,20,20)" stroke-width="1" opacity="1" d="M 199.5 252 L 221 252.5 L 196 276.5 L 196 257.5 L 197 253 L 199.5 252 Z "></path><path fill="rgb(252,252,252)" stroke="rgb(252,252,252)" stroke-width="1" opacity="1" d="M 32.5 6 L 216.5 6 L 217.5 7 L 229.5 7 L 234 10.5 L 237 15.5 L 237 49.5 L 238 50.5 L 238 248.5 L 193.5 293 L 15.5 293 L 7 285.5 L 7 275.5 L 6 274.5 L 6 24.5 L 7 23.5 L 7 14.5 L 12.5 8 L 14.5 7 L 31.5 7 L 32.5 6 Z M 19 15 L 15 19 L 15 282 L 18 284 L 187 284 L 187 254 L 188 251 L 197 243 L 228 243 L 229 242 L 229 19 L 226 15 L 19 15 Z M 199 252 L 196 255 L 196 277 L 221 253 L 199 252 Z "></path><path fill="rgb(252,252,252)" stroke="rgb(252,252,252)" stroke-width="1" opacity="1" d="M 92.5 25 L 146.5 25 Q 154.6 27.9 159 34.5 L 175 58 L 198.5 64 L 209 68.5 L 210 71.5 L 210 94.5 L 209 99.5 L 204.5 105 Q 198.1 109.8 186 108 Q 184.2 117.1 177.5 122 Q 171.8 127.8 158.5 126 Q 150.8 123.8 146 118.5 L 141 108 L 94.5 108 L 93 109.5 Q 90.5 118.5 83.5 123 Q 77.7 127.7 65.5 126 Q 55.8 123.3 51 115.5 L 48 107 Q 40 105.4 36 98.5 L 34 93.5 L 34 68.5 L 39.5 60 L 46.5 57 L 50.5 57 L 80.5 31 L 92.5 25 Z M 94 34 L 89 36 L 66 56 L 72 57 L 112 57 L 113 56 L 113 34 L 94 34 Z M 122 34 L 122 57 L 164 57 L 151 39 L 145 34 L 122 34 Z M 57 65 Q 57 72 53 78 L 43 85 L 44 95 L 49 98 L 53 89 L 65 81 Q 78 79 84 84 Q 91 88 93 98 L 95 99 L 140 99 L 145 90 L 157 81 L 171 81 L 178 85 L 186 97 L 187 99 L 198 99 Q 202 98 201 91 L 200 89 L 193 88 L 188 84 L 187 80 Q 186 74 189 72 L 188 70 L 174 66 L 81 66 L 80 65 L 57 65 Z M 48 66 L 43 70 L 44 74 L 48 69 L 48 66 Z M 199 75 L 196 76 L 198 80 Q 203 82 201 77 L 199 75 Z M 69 89 L 63 92 L 57 100 Q 56 109 60 113 L 67 117 Q 74 119 78 116 L 85 107 Q 86 100 83 97 Q 79 89 69 89 Z M 162 89 L 156 92 L 150 99 L 149 104 L 152 112 L 160 117 Q 168 118 172 115 Q 176 112 178 106 Q 179 99 176 97 Q 172 89 162 89 Z "></path><path fill="rgb(252,252,252)" stroke="rgb(252,252,252)" stroke-width="1" opacity="1" d="M 76 71 L 89 71 L 89 80 L 76 80 L 76 71 Z "></path><path fill="rgb(252,252,252)" stroke="rgb(252,252,252)" stroke-width="1" opacity="1" d="M 131 71 L 145 71 L 145 80 L 131 80 L 131 71 Z "></path><path fill="rgb(252,252,252)" stroke="rgb(252,252,252)" stroke-width="1" opacity="1" d="M 66 99 L 75 99 L 75 108 L 66 108 L 66 99 Z "></path><path fill="rgb(252,252,252)" stroke="rgb(252,252,252)" stroke-width="1" opacity="1" d="M 159 99 L 168 99 L 168 108 L 159 108 L 159 99 Z "></path><path fill="rgb(252,252,252)" stroke="rgb(252,252,252)" stroke-width="1" opacity="1" d="M 80 150 L 116.5 150 L 117 150.5 L 117 159 L 80.5 159 L 80 158.5 L 80 150 Z "></path><path fill="rgb(252,252,252)" stroke="rgb(252,252,252)" stroke-width="1" opacity="1" d="M 182 150 L 218.5 150 L 219 150.5 L 219 159 L 182.5 159 L 182 158.5 L 182 150 Z "></path><path fill="rgb(252,252,252)" stroke="rgb(252,252,252)" stroke-width="1" opacity="1" d="M 71 169 L 116.5 169 L 117 169.5 L 117 177 L 71.5 177 L 71 176.5 L 71 169 Z "></path><path fill="rgb(252,252,252)" stroke="rgb(252,252,252)" stroke-width="1" opacity="1" d="M 173 169 L 218.5 169 L 219 169.5 L 219 177 L 173.5 177 L 173 176.5 L 173 169 Z "></path><path fill="rgb(252,252,252)" stroke="rgb(252,252,252)" stroke-width="1" opacity="1" d="M 80 196 L 116.5 196 L 117 196.5 L 117 205 L 80.5 205 L 80 204.5 L 80 196 Z "></path><path fill="rgb(252,252,252)" stroke="rgb(252,252,252)" stroke-width="1" opacity="1" d="M 182 196 L 218.5 196 L 219 196.5 L 219 205 L 182.5 205 L 182 204.5 L 182 196 Z "></path><path fill="rgb(252,252,252)" stroke="rgb(252,252,252)" stroke-width="1" opacity="1" d="M 71 215 L 116.5 215 L 117 215.5 L 117 224 L 71.5 224 L 71 223.5 L 71 215 Z "></path><path fill="rgb(252,252,252)" stroke="rgb(252,252,252)" stroke-width="1" opacity="1" d="M 173 215 L 218.5 215 L 219 215.5 L 219 224 L 173.5 224 L 173 223.5 L 173 215 Z "></path><path fill="rgb(252,252,252)" stroke="rgb(252,252,252)" stroke-width="1" opacity="1" d="M 80 243 L 116.5 243 L 117 243.5 L 117 252 L 81.5 252 L 80 250.5 L 80 243 Z "></path><path fill="rgb(252,252,252)" stroke="rgb(252,252,252)" stroke-width="1" opacity="1" d="M 71 261 L 116.5 261 L 117 261.5 L 117 270 L 71.5 270 L 71 269.5 L 71 261 Z "></path></svg>