<svg width="182" height="184" version="1.1" xmlns="http://www.w3.org/2000/svg"><path fill="rgb(20,20,20)" stroke="rgb(20,20,20)" stroke-width="1" opacity="1" d="M 0 0 L 182 0 L 182 184 L 0 184 L 0 0 Z M 42 35 L 39 38 Q 28 37 23 40 Q 17 44 15 51 L 2 90 L 3 102 L 8 105 L 13 106 L 28 106 L 30 105 L 31 104 L 35 70 L 36 66 L 39 63 L 40 93 L 42 103 Q 47 104 48 102 L 47 88 L 46 87 L 46 73 L 45 72 L 45 65 L 54 65 L 55 69 L 61 72 L 62 76 L 57 79 L 52 87 L 42 132 Q 41 141 44 145 L 54 152 L 118 152 L 125 148 Q 129 144 130 138 L 118 83 L 114 78 L 112 78 L 109 75 L 113 72 Q 118 70 118 63 L 134 53 L 180 53 L 181 52 L 181 37 L 180 35 L 117 35 L 115 38 L 58 38 L 55 35 L 42 35 Z "></path><path fill="rgb(20,20,20)" stroke="rgb(20,20,20)" stroke-width="1" opacity="1" d="M 45 42 L 50 42.5 L 50 59 L 45 58.5 L 45 42 Z "></path><path fill="rgb(20,20,20)" stroke="rgb(20,20,20)" stroke-width="1" opacity="1" d="M 121 42 L 157.5 42 L 158 47 L 130.5 47 L 121.5 53 L 121 42 Z "></path><path fill="rgb(20,20,20)" stroke="rgb(20,20,20)" stroke-width="1" opacity="1" d="M 165 42 L 176 42 L 176 47 L 165 47 L 165 42 Z "></path><path fill="rgb(20,20,20)" stroke="rgb(20,20,20)" stroke-width="1" opacity="1" d="M 27.5 45 L 39 45 L 39 56 Q 33.6 56.7 31 61.5 L 28.5 65 Q 21.9 65.9 19 70.5 L 17 73.5 L 12 94.5 L 9.5 99 L 7 95.5 L 20 55.5 L 25.5 46 L 27.5 45 Z "></path><path fill="rgb(20,20,20)" stroke="rgb(20,20,20)" stroke-width="1" opacity="1" d="M 57 45 L 59 45 L 59 50 L 66 50 Q 63.5 42.5 71 45 L 71 50 L 77 50 Q 74.5 42.5 82 45 L 82 50 L 89 50 Q 86.5 42.5 94 45 L 94 50 L 101 50 Q 98.5 42.5 106 45 L 106 50 L 112 50 L 112 45 L 114 45 L 114 55.5 L 113.5 56 L 57 56 L 57 45 Z "></path><path fill="rgb(20,20,20)" stroke="rgb(20,20,20)" stroke-width="1" opacity="1" d="M 60 62 L 112 62.5 L 109.5 66 L 104 70.5 L 103 77.5 L 107.5 83 L 112 85.5 L 111.5 88 L 59 88 L 60.5 84 L 66 82 L 69 74.5 L 64.5 67 L 60 64.5 L 60 62 Z "></path><path fill="rgb(20,20,20)" stroke="rgb(20,20,20)" stroke-width="1" opacity="1" d="M 27.5 72 L 28 77.5 L 27 78.5 L 25 99 L 17 98.5 L 22 78.5 L 25.5 73 L 27.5 72 Z "></path><path fill="rgb(20,20,20)" stroke="rgb(20,20,20)" stroke-width="1" opacity="1" d="M 57 94 L 113.5 94 L 114 95.5 L 122 127.5 L 123 139.5 L 119.5 144 L 115.5 146 L 56.5 146 L 49 140.5 L 48 135.5 L 57 94 Z M 101 99 L 97 100 Q 92 103 91 109 L 82 105 L 75 106 L 71 108 L 65 114 L 62 123 L 63 129 L 66 134 L 76 140 Q 86 142 91 137 L 97 128 L 97 118 L 97 116 L 99 117 L 105 116 L 109 111 Q 110 105 107 103 L 101 99 Z "></path><path fill="rgb(20,20,20)" stroke="rgb(20,20,20)" stroke-width="1" opacity="1" d="M 100.5 105 Q 103.5 105.5 103 109.5 L 99.5 111 L 97 107.5 L 100.5 105 Z "></path><path fill="rgb(20,20,20)" stroke="rgb(20,20,20)" stroke-width="1" opacity="1" d="M 77.5 111 Q 86.7 110.8 90 116.5 Q 92.3 119.7 91 126.5 L 85.5 133 Q 82.3 135.3 75.5 134 L 71 130.5 Q 68 127.5 68 121.5 Q 69.3 115.8 73.5 113 L 77.5 111 Z "></path><path fill="rgb(136,136,136)" stroke="rgb(136,136,136)" stroke-width="1" opacity="1" d="M 41.5 35 L 54 35.5 L 41.5 36 L 41.5 35 Z "></path><path fill="rgb(136,136,136)" stroke="rgb(136,136,136)" stroke-width="1" opacity="1" d="M 116.5 35 L 180 35.5 L 116.5 36 L 115.5 37 L 116.5 35 Z "></path><path fill="rgb(136,136,136)" stroke="rgb(136,136,136)" stroke-width="1" opacity="1" d="M 29.5 38 L 38 38.5 L 29.5 39 L 29.5 38 Z "></path><path fill="rgb(136,136,136)" stroke="rgb(136,136,136)" stroke-width="1" opacity="1" d="M 60.5 38 L 112 38.5 L 60.5 39 L 60.5 38 Z "></path><path fill="rgb(136,136,136)" stroke="rgb(136,136,136)" stroke-width="1" opacity="1" d="M 45.5 41 L 51 41.5 L 45.5 42 L 45.5 41 Z "></path><path fill="rgb(136,136,136)" stroke="rgb(136,136,136)" stroke-width="1" opacity="1" d="M 121.5 41 L 157.5 41 L 159 42.5 L 158.5 47 L 158 42 L 121.5 42 L 121 42.5 L 121 52.5 L 120 52.5 L 120 42.5 L 121.5 41 Z "></path><path fill="rgb(136,136,136)" stroke="rgb(136,136,136)" stroke-width="1" opacity="1" d="M 164.5 41 L 176 41.5 L 164.5 42 L 164.5 41 Z "></path><path fill="rgb(136,136,136)" stroke="rgb(136,136,136)" stroke-width="1" opacity="1" d="M 28.5 44 L 32 44.5 L 28.5 45 L 28.5 44 Z "></path><path fill="rgb(136,136,136)" stroke="rgb(136,136,136)" stroke-width="1" opacity="1" d="M 59.5 44 L 60 49.5 L 59 49.5 L 59.5 44 Z "></path><path fill="rgb(136,136,136)" stroke="rgb(136,136,136)" stroke-width="1" opacity="1" d="M 65.5 44 L 66 49.5 L 65 49.5 L 65.5 44 Z "></path><path fill="rgb(136,136,136)" stroke="rgb(136,136,136)" stroke-width="1" opacity="1" d="M 56.5 45 L 57 54.5 L 56 54.5 L 56.5 45 Z "></path><path fill="rgb(136,136,136)" stroke="rgb(136,136,136)" stroke-width="1" opacity="1" d="M 88.5 45 L 89 49.5 L 88 49.5 L 88.5 45 Z "></path><path fill="rgb(136,136,136)" stroke="rgb(136,136,136)" stroke-width="1" opacity="1" d="M 94.5 45 L 95 49.5 L 94 49.5 L 94.5 45 Z "></path><path fill="rgb(136,136,136)" stroke="rgb(136,136,136)" stroke-width="1" opacity="1" d="M 24.5 46 L 23.5 48 L 24.5 46 Z "></path><path fill="rgb(136,136,136)" stroke="rgb(136,136,136)" stroke-width="1" opacity="1" d="M 34.5 58 L 31.5 62 L 34.5 58 Z "></path><path fill="rgb(136,136,136)" stroke="rgb(136,136,136)" stroke-width="1" opacity="1" d="M 37.5 63 L 36.5 65 L 37.5 63 Z "></path><path fill="rgb(136,136,136)" stroke="rgb(136,136,136)" stroke-width="1" opacity="1" d="M 45.5 64 L 54 64.5 L 45.5 65 L 45.5 64 Z "></path><path fill="rgb(136,136,136)" stroke="rgb(136,136,136)" stroke-width="1" opacity="1" d="M 64.5 67 L 66.5 70 L 64.5 67 Z "></path><path fill="rgb(136,136,136)" stroke="rgb(136,136,136)" stroke-width="1" opacity="1" d="M 116.5 67 L 113.5 71 L 116.5 67 Z "></path><path fill="rgb(136,136,136)" stroke="rgb(136,136,136)" stroke-width="1" opacity="1" d="M 20.5 69 L 19.5 71 L 20.5 69 Z "></path><path fill="rgb(136,136,136)" stroke="rgb(136,136,136)" stroke-width="1" opacity="1" d="M 27.5 71 Q 30.1 70.2 29 73.5 L 28 73.5 L 27.5 71 Z "></path><path fill="rgb(136,136,136)" stroke="rgb(136,136,136)" stroke-width="1" opacity="1" d="M 39.5 71 L 40 78.5 L 39 78.5 L 39.5 71 Z "></path><path fill="rgb(136,136,136)" stroke="rgb(136,136,136)" stroke-width="1" opacity="1" d="M 45.5 74 L 46 79.5 L 45 79.5 L 45.5 74 Z "></path><path fill="rgb(136,136,136)" stroke="rgb(136,136,136)" stroke-width="1" opacity="1" d="M 27.5 79 L 28 81.5 L 27 81.5 L 27.5 79 Z "></path><path fill="rgb(136,136,136)" stroke="rgb(136,136,136)" stroke-width="1" opacity="1" d="M 106.5 81 L 107.5 83 L 106.5 81 Z "></path><path fill="rgb(136,136,136)" stroke="rgb(136,136,136)" stroke-width="1" opacity="1" d="M 111.5 84 L 112.5 86 L 111.5 84 Z "></path><path fill="rgb(136,136,136)" stroke="rgb(136,136,136)" stroke-width="1" opacity="1" d="M 32.5 86 L 33 88.5 L 32 88.5 L 32.5 86 Z "></path><path fill="rgb(136,136,136)" stroke="rgb(136,136,136)" stroke-width="1" opacity="1" d="M 40.5 87 L 41 91.5 L 40 91.5 L 40.5 87 Z "></path><path fill="rgb(136,136,136)" stroke="rgb(136,136,136)" stroke-width="1" opacity="1" d="M 46.5 88 L 47 92.5 L 46 92.5 L 46.5 88 Z "></path><path fill="rgb(136,136,136)" stroke="rgb(136,136,136)" stroke-width="1" opacity="1" d="M 41.5 97 L 42 99.5 L 41 99.5 L 41.5 97 Z "></path><path fill="rgb(136,136,136)" stroke="rgb(136,136,136)" stroke-width="1" opacity="1" d="M 47.5 98 L 48 100.5 L 47 100.5 L 47.5 98 Z "></path><path fill="rgb(136,136,136)" stroke="rgb(136,136,136)" stroke-width="1" opacity="1" d="M 17.5 99 L 25 99.5 L 17.5 100 L 17.5 99 Z "></path><path fill="rgb(136,136,136)" stroke="rgb(136,136,136)" stroke-width="1" opacity="1" d="M 43.5 102 L 46 102.5 L 43.5 103 L 43.5 102 Z "></path><path fill="rgb(136,136,136)" stroke="rgb(136,136,136)" stroke-width="1" opacity="1" d="M 20.5 105 L 26 105.5 L 20.5 106 L 20.5 105 Z "></path><path fill="rgb(136,136,136)" stroke="rgb(136,136,136)" stroke-width="1" opacity="1" d="M 50.5 142 L 52.5 145 L 50.5 142 Z "></path><path fill="rgb(136,136,136)" stroke="rgb(136,136,136)" stroke-width="1" opacity="1" d="M 127.5 143 L 126.5 145 L 127.5 143 Z "></path><path fill="rgb(136,136,136)" stroke="rgb(136,136,136)" stroke-width="1" opacity="1" d="M 48.5 148 L 49.5 150 L 48.5 148 Z "></path><path fill="rgb(136,136,136)" stroke="rgb(136,136,136)" stroke-width="1" opacity="1" d="M 54.5 151 L 57 151.5 L 54.5 152 L 54.5 151 Z "></path><path fill="rgb(136,136,136)" stroke="rgb(136,136,136)" stroke-width="1" opacity="1" d="M 114.5 151 L 118 151.5 L 114.5 152 L 114.5 151 Z "></path><path fill="rgb(209,206,206)" stroke="rgb(209,206,206)" stroke-width="1" opacity="1" d="M 180.5 36 L 181 51.5 L 180 51.5 L 180.5 36 Z "></path><path fill="rgb(209,206,206)" stroke="rgb(209,206,206)" stroke-width="1" opacity="1" d="M 39.5 37 L 38.5 39 L 39.5 37 Z "></path><path fill="rgb(209,206,206)" stroke="rgb(209,206,206)" stroke-width="1" opacity="1" d="M 57.5 38 L 60 38.5 L 57.5 39 L 57.5 38 Z "></path><path fill="rgb(209,206,206)" stroke="rgb(209,206,206)" stroke-width="1" opacity="1" d="M 60.5 61 L 112 61.5 L 60.5 62 L 60.5 61 Z "></path><path fill="rgb(209,206,206)" stroke="rgb(209,206,206)" stroke-width="1" opacity="1" d="M 39.5 68 L 40 70.5 L 39 70.5 L 39.5 68 Z "></path><path fill="rgb(209,206,206)" stroke="rgb(209,206,206)" stroke-width="1" opacity="1" d="M 103.5 73 L 104 75.5 L 103 75.5 L 103.5 73 Z "></path><path fill="rgb(209,206,206)" stroke="rgb(209,206,206)" stroke-width="1" opacity="1" d="M 57.5 93 L 114 93.5 L 57.5 94 L 57.5 93 Z "></path><path fill="rgb(209,206,206)" stroke="rgb(209,206,206)" stroke-width="1" opacity="1" d="M 46.5 146 L 47.5 148 L 46.5 146 Z "></path><path fill="rgb(209,206,206)" stroke="rgb(209,206,206)" stroke-width="1" opacity="1" d="M 57.5 151 L 64 151.5 L 57.5 152 L 57.5 151 Z "></path><path fill="rgb(209,206,206)" stroke="rgb(209,206,206)" stroke-width="1" opacity="1" d="M 108.5 151 L 114 151.5 L 108.5 152 L 108.5 151 Z "></path><path fill="rgb(240,240,240)" stroke="rgb(240,240,240)" stroke-width="1" opacity="1" d="M 39.5 44 L 40 55.5 L 39 55.5 L 39.5 44 Z "></path><path fill="rgb(240,240,240)" stroke="rgb(240,240,240)" stroke-width="1" opacity="1" d="M 71.5 44 L 72 49.5 L 71 49.5 L 71.5 44 Z "></path><path fill="rgb(240,240,240)" stroke="rgb(240,240,240)" stroke-width="1" opacity="1" d="M 106.5 44 L 107 49.5 L 106 49.5 L 106.5 44 Z "></path><path fill="rgb(240,240,240)" stroke="rgb(240,240,240)" stroke-width="1" opacity="1" d="M 111.5 44 L 112 49.5 L 111 49.5 L 111.5 44 Z "></path><path fill="rgb(240,240,240)" stroke="rgb(240,240,240)" stroke-width="1" opacity="1" d="M 132.5 47 L 159 47.5 L 132.5 48 L 132.5 47 Z "></path><path fill="rgb(240,240,240)" stroke="rgb(240,240,240)" stroke-width="1" opacity="1" d="M 164.5 47 L 176 47.5 L 164.5 48 L 164.5 47 Z "></path><path fill="rgb(240,240,240)" stroke="rgb(240,240,240)" stroke-width="1" opacity="1" d="M 59.5 64 L 60.5 66 L 59.5 64 Z "></path><path fill="rgb(240,240,240)" stroke="rgb(240,240,240)" stroke-width="1" opacity="1" d="M 39.5 65 L 40 67.5 L 39 67.5 L 39.5 65 Z "></path><path fill="rgb(240,240,240)" stroke="rgb(240,240,240)" stroke-width="1" opacity="1" d="M 106.5 68 L 105.5 70 L 106.5 68 Z "></path><path fill="rgb(240,240,240)" stroke="rgb(240,240,240)" stroke-width="1" opacity="1" d="M 19.5 71 L 18.5 73 L 19.5 71 Z "></path><path fill="rgb(240,240,240)" stroke="rgb(240,240,240)" stroke-width="1" opacity="1" d="M 66.5 79 L 64.5 82 L 66.5 79 Z "></path><path fill="rgb(240,240,240)" stroke="rgb(240,240,240)" stroke-width="1" opacity="1" d="M 59.5 84 L 58.5 86 L 59.5 84 Z "></path><path fill="rgb(240,240,240)" stroke="rgb(240,240,240)" stroke-width="1" opacity="1" d="M 7.5 97 L 8.5 99 L 7.5 97 Z "></path><path fill="rgb(240,240,240)" stroke="rgb(240,240,240)" stroke-width="1" opacity="1" d="M 121.5 142 L 119.5 145 L 121.5 142 Z "></path><path fill="rgb(240,240,240)" stroke="rgb(240,240,240)" stroke-width="1" opacity="1" d="M 125.5 145 L 122.5 149 L 125.5 145 Z "></path><path fill="rgb(240,240,240)" stroke="rgb(240,240,240)" stroke-width="1" opacity="1" d="M 64.5 151 L 81 151.5 L 64.5 152 L 64.5 151 Z "></path><path fill="rgb(240,240,240)" stroke="rgb(240,240,240)" stroke-width="1" opacity="1" d="M 90.5 151 L 108 151.5 L 90.5 152 L 90.5 151 Z "></path><path fill="rgb(255,255,255)" stroke="rgb(255,255,255)" stroke-width="1" opacity="1" d="M 41.5 36 L 54.5 36 L 57.5 39 L 115 39 L 116.5 36 L 179.5 36 L 180 36.5 L 180 53 L 131.5 53 L 117 62.5 Q 116.9 68.9 112.5 71 L 109 72 Q 107.8 76.6 110.5 78 L 117 82.5 L 127 123.5 L 129 138.5 Q 126.9 146.4 120.5 150 L 117.5 151 L 90.5 151 L 89.5 152 L 81.5 152 L 80.5 151 L 53.5 151 L 45 144.5 Q 41.3 140.2 43 130.5 L 53 86.5 L 56.5 80 L 62 78 L 63 73.5 L 56 68.5 L 53.5 64 L 44.5 64 L 44 65.5 L 45 66.5 L 45 83.5 L 46 84.5 L 47 102 L 42 102 L 42 95.5 L 41 94.5 L 41 83.5 L 40 82.5 L 40 65.5 L 38.5 62 L 35 65.5 L 31 97.5 Q 28.8 98.8 30 103.5 L 28.5 105 L 9.5 105 L 4 101.5 Q 0.2 98.3 2 89.5 L 4 87.5 L 17 47.5 L 22.5 41 Q 27.9 37.4 38.5 39 L 41.5 36 Z M 45 41 L 45 59 L 51 59 L 51 41 L 45 41 Z M 120 41 L 120 54 L 131 48 L 159 48 L 159 42 L 159 41 L 120 41 Z M 164 41 L 164 48 L 176 48 L 176 41 L 164 41 Z M 28 44 L 26 45 L 21 51 L 7 93 L 7 98 L 11 100 L 17 76 L 20 71 Q 23 67 29 66 L 31 63 L 40 56 L 40 44 L 28 44 Z M 56 44 L 56 56 L 115 56 L 115 56 L 115 44 L 111 44 L 111 50 L 107 50 L 107 44 L 100 44 L 100 50 L 95 50 L 95 44 L 88 44 L 88 50 L 83 50 L 83 44 L 77 44 L 77 50 L 72 50 L 72 44 L 65 44 L 65 50 L 60 50 L 60 44 L 56 44 Z M 59 61 L 59 65 L 65 68 L 68 74 L 67 79 L 60 84 L 58 88 L 113 88 L 113 86 L 108 82 Q 103 80 104 72 L 112 65 L 112 61 L 59 61 Z M 28 71 L 26 72 L 22 77 L 16 99 L 17 100 L 25 100 L 26 99 L 26 92 L 29 76 Q 31 70 28 71 Z M 58 93 L 56 95 L 51 121 L 49 126 L 48 141 L 55 146 L 118 146 L 120 145 L 124 139 L 122 124 L 115 96 L 115 93 L 58 93 Z "></path><path fill="rgb(177,54,59)" stroke="rgb(177,54,59)" stroke-width="1" opacity="1" d="M 50.5 42 L 51 57.5 L 50 57.5 L 50.5 42 Z "></path><path fill="rgb(177,54,59)" stroke="rgb(177,54,59)" stroke-width="1" opacity="1" d="M 164.5 42 L 165 46.5 L 164 46.5 L 164.5 42 Z "></path><path fill="rgb(177,54,59)" stroke="rgb(177,54,59)" stroke-width="1" opacity="1" d="M 32.5 44 L 39 44.5 L 32.5 45 L 32.5 44 Z "></path><path fill="rgb(177,54,59)" stroke="rgb(177,54,59)" stroke-width="1" opacity="1" d="M 66.5 44 L 71 44.5 L 66.5 45 L 66.5 44 Z "></path><path fill="rgb(177,54,59)" stroke="rgb(177,54,59)" stroke-width="1" opacity="1" d="M 77.5 44 Q 82 43 83 45.5 L 82.5 50 L 82 45 L 77.5 45 L 77.5 44 Z "></path><path fill="rgb(177,54,59)" stroke="rgb(177,54,59)" stroke-width="1" opacity="1" d="M 89.5 44 L 94 44.5 L 89.5 45 L 89.5 44 Z "></path><path fill="rgb(177,54,59)" stroke="rgb(177,54,59)" stroke-width="1" opacity="1" d="M 101.5 44 L 106 44.5 L 101 45 L 100.5 50 L 100 45.5 L 101.5 44 Z "></path><path fill="rgb(177,54,59)" stroke="rgb(177,54,59)" stroke-width="1" opacity="1" d="M 112.5 44 L 115 45.5 L 114.5 55 L 114 45 L 112.5 44 Z "></path><path fill="rgb(177,54,59)" stroke="rgb(177,54,59)" stroke-width="1" opacity="1" d="M 100.5 99 L 107 102.5 Q 110 104.5 109 110.5 L 104.5 116 L 98.5 117 L 96.5 116 L 97 117.5 L 97 127.5 L 90.5 137 Q 86 141.5 75.5 140 L 66 133.5 L 63 128.5 L 62 122.5 L 65 113.5 L 70.5 108 L 74.5 106 L 81.5 105 L 90.5 109 Q 91.6 102.6 96.5 100 L 100.5 99 Z M 101 105 L 97 108 L 100 111 L 103 110 Q 104 106 101 105 Z M 78 111 L 74 113 Q 69 116 68 122 Q 68 128 71 131 L 76 134 Q 82 135 86 133 L 91 127 Q 92 120 90 117 Q 87 111 78 111 Z "></path><path fill="rgb(177,54,59)" stroke="rgb(177,54,59)" stroke-width="1" opacity="1" d="M 12.5 105 L 20 105.5 L 12.5 106 L 12.5 105 Z "></path><path fill="rgb(177,54,59)" stroke="rgb(177,54,59)" stroke-width="1" opacity="1" d="M 129.5 134 L 130 137.5 L 129 137.5 L 129.5 134 Z "></path><path fill="rgb(177,54,59)" stroke="rgb(177,54,59)" stroke-width="1" opacity="1" d="M 125.5 146 L 124.5 148 L 125.5 146 Z "></path></svg>