<svg width="214" height="216" version="1.1" xmlns="http://www.w3.org/2000/svg"><path fill="rgb(64,64,64)" stroke="rgb(64,64,64)" stroke-width="1" opacity="1" d="M 30.5 99 L 28.5 102 L 30.5 99 Z "></path><path fill="rgb(64,64,64)" stroke="rgb(64,64,64)" stroke-width="1" opacity="1" d="M 42.5 126 L 40.5 129 L 42.5 126 Z "></path><path fill="rgb(64,64,64)" stroke="rgb(64,64,64)" stroke-width="1" opacity="1" d="M 45.5 133 L 27.5 152 L 45.5 133 Z "></path><path fill="rgb(64,64,64)" stroke="rgb(64,64,64)" stroke-width="1" opacity="1" d="M 22.5 146 L 20.5 149 L 22.5 146 Z "></path><path fill="rgb(20,20,20)" stroke="rgb(20,20,20)" stroke-width="1" opacity="1" d="M 0 0 L 214 0.5 L 211.5 2 L 135.5 2 Q 120.6 5.6 112 15.5 L 105 25.5 L 96 50 Q 91.1 51.8 93 45.5 L 90.5 43 L 75.5 43 L 74.5 44 L 63.5 45 L 57 49.5 L 54 59.5 L 59.5 69 L 63.5 71 L 81 71 L 80 74.5 Q 71.3 82.8 65.5 94 L 55.5 91 L 47.5 91 Q 33 93.5 26 103.5 L 20 116.5 L 20 128.5 L 22 135.5 L 10 148.5 L 10 157.5 L 10 159.5 Q 3.3 168.8 0.5 182 L 0 0 Z M 24 53 L 22 54 L 17 67 Q 14 73 6 74 Q 2 75 3 80 L 11 83 Q 19 88 20 100 Q 21 103 26 102 L 28 99 L 31 89 Q 34 83 42 82 Q 46 81 45 77 L 37 72 Q 28 68 28 57 L 24 53 Z M 107 133 L 104 141 L 97 144 Q 90 146 89 143 L 78 143 L 75 146 L 75 167 L 76 170 L 84 175 L 108 176 L 109 177 L 125 177 L 126 178 L 140 178 L 141 177 L 139 164 L 134 149 L 131 146 Q 124 147 123 145 Q 124 141 119 143 Q 114 140 113 135 L 113 133 L 107 133 Z "></path><path fill="rgb(20,20,20)" stroke="rgb(20,20,20)" stroke-width="1" opacity="1" d="M 144.5 9 L 214 9 L 214 50 L 153.5 50 L 152.5 51 L 137.5 51 L 136.5 52 L 118.5 53 L 102.5 56 L 103 54.5 L 113 27.5 L 124.5 15 L 135.5 10 L 143.5 10 L 144.5 9 Z "></path><path fill="rgb(20,20,20)" stroke="rgb(20,20,20)" stroke-width="1" opacity="1" d="M 73.5 51 L 84.5 51 L 85 54.5 Q 87.3 58.2 93 58.5 L 88.5 64 L 70.5 64 L 65.5 63 L 63 60.5 L 62 56.5 L 64.5 53 L 73.5 51 Z "></path><path fill="rgb(20,20,20)" stroke="rgb(20,20,20)" stroke-width="1" opacity="1" d="M 206.5 57 L 213.5 57 L 214 57.5 L 214 91 L 152.5 91 L 144 95 L 141 100.5 L 141 114.5 Q 143.4 123.1 150.5 127 L 158.5 130 L 214 130 L 214 145.5 L 213.5 146 L 146.5 146 Q 142.3 147.8 144 155.5 Q 146.5 167.5 154.5 174 L 167.5 181 L 178.5 181 L 179.5 182 L 212.5 182 L 214 181.5 Q 214.8 187.8 213.5 188 L 162.5 188 L 161.5 187 L 125.5 187 L 124.5 186 L 115.5 186 L 114.5 185 L 107.5 185 L 106.5 184 L 88.5 182 Q 76.9 180.1 72 171.5 L 69 163.5 L 69 148 L 76 142.5 Q 82.2 135 83 123 L 96.5 124 L 97.5 125 L 105.5 125 L 106.5 126 L 126.5 126 L 130.5 127 L 134 124.5 L 134 117.5 L 131 108.5 L 119.5 94 L 105.5 86 L 82 83.5 L 98.5 64 L 116.5 62 L 117.5 61 L 125.5 61 L 126.5 60 L 147.5 59 L 148.5 58 L 205.5 58 L 206.5 57 Z "></path><path fill="rgb(20,20,20)" stroke="rgb(20,20,20)" stroke-width="1" opacity="1" d="M 23.5 69 L 31 78.5 L 25 86 L 22 84.5 L 16 77.5 L 23.5 69 Z "></path><path fill="rgb(20,20,20)" stroke="rgb(20,20,20)" stroke-width="1" opacity="1" d="M 76.5 92 L 97.5 92 L 101.5 93 Q 111.7 96.3 118 103.5 Q 123.7 109.3 126 118.5 L 118.5 119 L 117.5 118 L 105.5 118 L 104.5 117 L 95.5 117 L 89 115.5 L 94 113 L 97 104.5 Q 95.8 98.8 91.5 96 L 82.5 95 L 76 100.5 L 75.5 102 L 72 98.5 L 74 96.5 L 76.5 92 Z M 104 102 L 102 103 L 99 108 L 100 113 L 105 116 L 111 115 L 114 111 L 112 103 Q 110 101 104 102 Z "></path><path fill="rgb(20,20,20)" stroke="rgb(20,20,20)" stroke-width="1" opacity="1" d="M 46.5 99 Q 56.1 97.9 61.5 101 L 72 110.5 L 75 118.5 L 75 126.5 Q 72.9 135.9 66.5 141 Q 59.7 148 45 146 L 49.5 140 Q 62.1 140.6 66 132.5 Q 70.3 128.3 69 118.5 Q 66.8 111.8 61.5 108 L 55.5 105 L 47.5 105 L 38 110 L 34 117.5 L 34 123.5 L 29.5 128 L 28 127.5 L 28 117.5 Q 30.5 109 36.5 104 L 46.5 99 Z "></path><path fill="rgb(20,20,20)" stroke="rgb(20,20,20)" stroke-width="1" opacity="1" d="M 152.5 99 L 158 99 L 158 105 L 148 104.5 L 150 100 L 152.5 99 Z "></path><path fill="rgb(20,20,20)" stroke="rgb(20,20,20)" stroke-width="1" opacity="1" d="M 166 99 L 172 99 L 172 105 L 166 105 L 166 99 Z "></path><path fill="rgb(20,20,20)" stroke="rgb(20,20,20)" stroke-width="1" opacity="1" d="M 179 99 L 185 99 L 185 105 L 179 105 L 179 99 Z "></path><path fill="rgb(20,20,20)" stroke="rgb(20,20,20)" stroke-width="1" opacity="1" d="M 193 99 L 199 99 L 199 105 L 193 105 L 193 99 Z "></path><path fill="rgb(20,20,20)" stroke="rgb(20,20,20)" stroke-width="1" opacity="1" d="M 207 99 L 214 99 L 214 105 L 207 105 L 207 99 Z "></path><path fill="rgb(20,20,20)" stroke="rgb(20,20,20)" stroke-width="1" opacity="1" d="M 85.5 102 L 89 104.5 L 88 108 Q 84.2 109 83 106.5 Q 82.5 102.5 85.5 102 Z "></path><path fill="rgb(20,20,20)" stroke="rgb(20,20,20)" stroke-width="1" opacity="1" d="M 213.5 112 L 214 122 L 207 122 L 207 113 L 213.5 112 Z "></path><path fill="rgb(20,20,20)" stroke="rgb(20,20,20)" stroke-width="1" opacity="1" d="M 47.5 113 Q 57.6 111.4 60 117.5 L 61 125.5 L 58.5 129 L 59 127.5 Q 59.1 119.4 53.5 117 L 46 114.5 L 47.5 113 Z "></path><path fill="rgb(20,20,20)" stroke="rgb(20,20,20)" stroke-width="1" opacity="1" d="M 149.5 113 L 158 113 L 158 121 L 155.5 121 L 150 115.5 L 149.5 113 Z "></path><path fill="rgb(20,20,20)" stroke="rgb(20,20,20)" stroke-width="1" opacity="1" d="M 166 113 L 172 113 L 172 122 L 166 122 L 166 113 Z "></path><path fill="rgb(20,20,20)" stroke="rgb(20,20,20)" stroke-width="1" opacity="1" d="M 179 113 L 185 113 L 185 122 L 179 122 L 179 113 Z "></path><path fill="rgb(20,20,20)" stroke="rgb(20,20,20)" stroke-width="1" opacity="1" d="M 193 113 L 199 113 L 199 122 L 193 122 L 193 113 Z "></path><path fill="rgb(20,20,20)" stroke="rgb(20,20,20)" stroke-width="1" opacity="1" d="M 46.5 123 Q 50.5 122.5 51 125.5 L 50 128.5 L 22.5 156 L 20.5 157 L 18 156 L 17 153.5 L 46.5 123 Z "></path><path fill="rgb(20,20,20)" stroke="rgb(20,20,20)" stroke-width="1" opacity="1" d="M 38.5 151 Q 44.6 155.4 56.5 154 L 61 153 L 61 163.5 L 65 174.5 L 65 209.5 L 70.5 215 L 72 215.5 L 7 216 L 7 189.5 Q 9.2 188.2 8 183.5 Q 10.5 171.5 17.5 164 L 26.5 163 L 38.5 151 Z "></path><path fill="rgb(20,20,20)" stroke="rgb(20,20,20)" stroke-width="1" opacity="1" d="M 83 151 L 102.5 152 L 105 154.5 Q 105.3 159.3 108.5 161 Q 112.3 161.8 113 159.5 L 116.5 153 L 126.5 154 L 128 155.5 L 132 170 L 122.5 170 L 121.5 169 L 105.5 169 L 104.5 168 L 88.5 168 L 83 165.5 L 83 151 Z "></path><path fill="rgb(20,20,20)" stroke="rgb(20,20,20)" stroke-width="1" opacity="1" d="M 153.5 154 L 213.5 154 L 214 154.5 L 214 174 L 172.5 174 Q 160.1 171.9 155 162.5 L 152 155.5 L 153.5 154 Z "></path><path fill="rgb(20,20,20)" stroke="rgb(20,20,20)" stroke-width="1" opacity="1" d="M 72.5 183 L 80.5 188 L 106 192 L 106 206.5 L 104.5 208 L 74.5 208 L 72 205.5 L 72.5 183 Z "></path><path fill="rgb(20,20,20)" stroke="rgb(20,20,20)" stroke-width="1" opacity="1" d="M 114 193 Q 118.8 195.1 128.5 194 L 129.5 195 L 214 195 L 214 215.5 L 213.5 216 L 106.5 216 L 106.5 215 Q 111.5 215.5 112 211.5 L 114 206.5 L 114 193 Z "></path><path fill="rgb(227,227,227)" stroke="rgb(227,227,227)" stroke-width="1" opacity="1" d="M 140.5 2 L 159 2.5 L 140.5 3 L 140.5 2 Z "></path><path fill="rgb(227,227,227)" stroke="rgb(227,227,227)" stroke-width="1" opacity="1" d="M 149.5 8 L 213 8.5 L 149.5 9 L 149.5 8 Z "></path><path fill="rgb(227,227,227)" stroke="rgb(227,227,227)" stroke-width="1" opacity="1" d="M 115.5 13 L 112.5 17 L 115.5 13 Z "></path><path fill="rgb(227,227,227)" stroke="rgb(227,227,227)" stroke-width="1" opacity="1" d="M 121.5 16 L 115.5 23 L 121.5 16 Z "></path><path fill="rgb(227,227,227)" stroke="rgb(227,227,227)" stroke-width="1" opacity="1" d="M 59.5 48 L 57.5 51 L 59.5 48 Z "></path><path fill="rgb(227,227,227)" stroke="rgb(227,227,227)" stroke-width="1" opacity="1" d="M 73.5 50 L 76 50.5 L 73.5 51 L 73.5 50 Z "></path><path fill="rgb(227,227,227)" stroke="rgb(227,227,227)" stroke-width="1" opacity="1" d="M 92.5 50 L 97 50.5 L 92.5 51 L 92.5 50 Z "></path><path fill="rgb(227,227,227)" stroke="rgb(227,227,227)" stroke-width="1" opacity="1" d="M 188.5 50 L 213 50.5 L 188.5 51 L 188.5 50 Z "></path><path fill="rgb(227,227,227)" stroke="rgb(227,227,227)" stroke-width="1" opacity="1" d="M 147.5 51 L 151 51.5 L 147.5 52 L 147.5 51 Z "></path><path fill="rgb(227,227,227)" stroke="rgb(227,227,227)" stroke-width="1" opacity="1" d="M 134.5 52 L 137 52.5 L 134.5 53 L 134.5 52 Z "></path><path fill="rgb(227,227,227)" stroke="rgb(227,227,227)" stroke-width="1" opacity="1" d="M 61.5 56 L 62 59.5 L 61 59.5 L 61.5 56 Z "></path><path fill="rgb(227,227,227)" stroke="rgb(227,227,227)" stroke-width="1" opacity="1" d="M 150.5 57 L 157 57.5 L 150.5 58 L 150.5 57 Z "></path><path fill="rgb(227,227,227)" stroke="rgb(227,227,227)" stroke-width="1" opacity="1" d="M 137.5 58 L 140 58.5 L 137.5 59 L 137.5 58 Z "></path><path fill="rgb(227,227,227)" stroke="rgb(227,227,227)" stroke-width="1" opacity="1" d="M 62.5 61 L 64.5 64 L 62.5 61 Z "></path><path fill="rgb(227,227,227)" stroke="rgb(227,227,227)" stroke-width="1" opacity="1" d="M 91.5 61 L 90.5 63 L 91.5 61 Z "></path><path fill="rgb(227,227,227)" stroke="rgb(227,227,227)" stroke-width="1" opacity="1" d="M 57.5 65 L 59.5 68 L 57.5 65 Z "></path><path fill="rgb(227,227,227)" stroke="rgb(227,227,227)" stroke-width="1" opacity="1" d="M 94.5 67 L 93.5 69 L 94.5 67 Z "></path><path fill="rgb(227,227,227)" stroke="rgb(227,227,227)" stroke-width="1" opacity="1" d="M 67.5 70 L 76 70.5 L 67.5 71 L 67.5 70 Z "></path><path fill="rgb(227,227,227)" stroke="rgb(227,227,227)" stroke-width="1" opacity="1" d="M 82.5 72 L 81.5 74 L 82.5 72 Z "></path><path fill="rgb(227,227,227)" stroke="rgb(227,227,227)" stroke-width="1" opacity="1" d="M 90.5 72 L 88.5 75 L 90.5 72 Z "></path><path fill="rgb(227,227,227)" stroke="rgb(227,227,227)" stroke-width="1" opacity="1" d="M 77.5 78 L 76.5 80 L 77.5 78 Z "></path><path fill="rgb(227,227,227)" stroke="rgb(227,227,227)" stroke-width="1" opacity="1" d="M 85.5 78 L 84.5 80 L 85.5 78 Z "></path><path fill="rgb(227,227,227)" stroke="rgb(227,227,227)" stroke-width="1" opacity="1" d="M 86.5 91 L 96 91.5 L 86.5 92 L 86.5 91 Z "></path><path fill="rgb(227,227,227)" stroke="rgb(227,227,227)" stroke-width="1" opacity="1" d="M 118.5 94 L 124.5 101 L 118.5 94 Z "></path><path fill="rgb(227,227,227)" stroke="rgb(227,227,227)" stroke-width="1" opacity="1" d="M 91.5 97 L 94.5 101 L 91.5 97 Z "></path><path fill="rgb(227,227,227)" stroke="rgb(227,227,227)" stroke-width="1" opacity="1" d="M 32.5 98 L 26.5 105 L 32.5 98 Z "></path><path fill="rgb(227,227,227)" stroke="rgb(227,227,227)" stroke-width="1" opacity="1" d="M 52.5 98 L 55 98.5 L 52.5 99 L 52.5 98 Z "></path><path fill="rgb(227,227,227)" stroke="rgb(227,227,227)" stroke-width="1" opacity="1" d="M 71.5 98 L 76 103.5 L 71 99.5 L 71.5 98 Z "></path><path fill="rgb(227,227,227)" stroke="rgb(227,227,227)" stroke-width="1" opacity="1" d="M 113.5 98 L 114.5 100 L 113.5 98 Z "></path><path fill="rgb(227,227,227)" stroke="rgb(227,227,227)" stroke-width="1" opacity="1" d="M 158.5 98 L 159 105.5 L 158 105.5 L 158.5 98 Z "></path><path fill="rgb(227,227,227)" stroke="rgb(227,227,227)" stroke-width="1" opacity="1" d="M 178.5 98 L 179 105.5 L 178 105.5 L 178.5 98 Z "></path><path fill="rgb(227,227,227)" stroke="rgb(227,227,227)" stroke-width="1" opacity="1" d="M 150.5 99 L 148.5 102 L 150.5 99 Z "></path><path fill="rgb(227,227,227)" stroke="rgb(227,227,227)" stroke-width="1" opacity="1" d="M 37.5 102 L 36.5 104 L 37.5 102 Z "></path><path fill="rgb(227,227,227)" stroke="rgb(227,227,227)" stroke-width="1" opacity="1" d="M 83.5 102 L 82.5 104 L 83.5 102 Z "></path><path fill="rgb(227,227,227)" stroke="rgb(227,227,227)" stroke-width="1" opacity="1" d="M 66.5 103 L 71.5 109 L 66.5 103 Z "></path><path fill="rgb(227,227,227)" stroke="rgb(227,227,227)" stroke-width="1" opacity="1" d="M 102.5 103 L 101.5 105 L 102.5 103 Z "></path><path fill="rgb(227,227,227)" stroke="rgb(227,227,227)" stroke-width="1" opacity="1" d="M 119.5 104 L 120.5 106 L 119.5 104 Z "></path><path fill="rgb(227,227,227)" stroke="rgb(227,227,227)" stroke-width="1" opacity="1" d="M 147.5 104 L 148.5 106 L 147.5 104 Z "></path><path fill="rgb(227,227,227)" stroke="rgb(227,227,227)" stroke-width="1" opacity="1" d="M 32.5 107 L 31.5 109 L 32.5 107 Z "></path><path fill="rgb(227,227,227)" stroke="rgb(227,227,227)" stroke-width="1" opacity="1" d="M 82.5 107 L 83.5 109 L 82.5 107 Z "></path><path fill="rgb(227,227,227)" stroke="rgb(227,227,227)" stroke-width="1" opacity="1" d="M 121.5 107 L 122.5 109 L 121.5 107 Z "></path><path fill="rgb(227,227,227)" stroke="rgb(227,227,227)" stroke-width="1" opacity="1" d="M 93.5 111 L 91.5 114 L 93.5 111 Z "></path><path fill="rgb(227,227,227)" stroke="rgb(227,227,227)" stroke-width="1" opacity="1" d="M 64.5 112 L 65.5 114 L 64.5 112 Z "></path><path fill="rgb(227,227,227)" stroke="rgb(227,227,227)" stroke-width="1" opacity="1" d="M 158.5 112 L 159 121.5 L 158 121.5 L 158.5 112 Z "></path><path fill="rgb(227,227,227)" stroke="rgb(227,227,227)" stroke-width="1" opacity="1" d="M 178.5 112 L 179 122.5 L 178 122.5 L 178.5 112 Z "></path><path fill="rgb(227,227,227)" stroke="rgb(227,227,227)" stroke-width="1" opacity="1" d="M 44.5 114 L 44.5 117 Q 42.3 117.8 43 115.5 L 44.5 114 Z "></path><path fill="rgb(227,227,227)" stroke="rgb(227,227,227)" stroke-width="1" opacity="1" d="M 95.5 117 L 98 117.5 L 95.5 118 L 95.5 117 Z "></path><path fill="rgb(227,227,227)" stroke="rgb(227,227,227)" stroke-width="1" opacity="1" d="M 126.5 117 L 127 120 L 121 119.5 L 126 119 L 126.5 117 Z "></path><path fill="rgb(227,227,227)" stroke="rgb(227,227,227)" stroke-width="1" opacity="1" d="M 150.5 117 L 152.5 120 L 150.5 117 Z "></path><path fill="rgb(227,227,227)" stroke="rgb(227,227,227)" stroke-width="1" opacity="1" d="M 75.5 118 L 76 120.5 L 75 120.5 L 75.5 118 Z "></path><path fill="rgb(227,227,227)" stroke="rgb(227,227,227)" stroke-width="1" opacity="1" d="M 106.5 118 L 109 118.5 L 106.5 119 L 106.5 118 Z "></path><path fill="rgb(227,227,227)" stroke="rgb(227,227,227)" stroke-width="1" opacity="1" d="M 34.5 121 L 35 123.5 L 34 123.5 L 34.5 121 Z "></path><path fill="rgb(227,227,227)" stroke="rgb(227,227,227)" stroke-width="1" opacity="1" d="M 93.5 123 L 96 123.5 L 93.5 124 L 93.5 123 Z "></path><path fill="rgb(227,227,227)" stroke="rgb(227,227,227)" stroke-width="1" opacity="1" d="M 133.5 123 L 131.5 126 L 133.5 123 Z "></path><path fill="rgb(227,227,227)" stroke="rgb(227,227,227)" stroke-width="1" opacity="1" d="M 102.5 124 L 105 124.5 L 102.5 125 L 102.5 124 Z "></path><path fill="rgb(227,227,227)" stroke="rgb(227,227,227)" stroke-width="1" opacity="1" d="M 33.5 125 L 29.5 130 L 33.5 125 Z "></path><path fill="rgb(227,227,227)" stroke="rgb(227,227,227)" stroke-width="1" opacity="1" d="M 42.5 125 L 20.5 148 L 42.5 125 Z "></path><path fill="rgb(227,227,227)" stroke="rgb(227,227,227)" stroke-width="1" opacity="1" d="M 117.5 125 L 123 125.5 L 117.5 126 L 117.5 125 Z "></path><path fill="rgb(227,227,227)" stroke="rgb(227,227,227)" stroke-width="1" opacity="1" d="M 108.5 133 L 110 133.5 L 107.5 135 L 108.5 133 Z "></path><path fill="rgb(227,227,227)" stroke="rgb(227,227,227)" stroke-width="1" opacity="1" d="M 45.5 134 L 28.5 152 L 45.5 134 Z "></path><path fill="rgb(227,227,227)" stroke="rgb(227,227,227)" stroke-width="1" opacity="1" d="M 22.5 136 L 16.5 143 L 22.5 136 Z "></path><path fill="rgb(227,227,227)" stroke="rgb(227,227,227)" stroke-width="1" opacity="1" d="M 60.5 136 L 59.5 138 L 60.5 136 Z "></path><path fill="rgb(227,227,227)" stroke="rgb(227,227,227)" stroke-width="1" opacity="1" d="M 71.5 136 L 70.5 138 L 71.5 136 Z "></path><path fill="rgb(227,227,227)" stroke="rgb(227,227,227)" stroke-width="1" opacity="1" d="M 49.5 139 L 52 139.5 Q 46.1 140.1 44.5 145 L 49.5 139 Z "></path><path fill="rgb(227,227,227)" stroke="rgb(227,227,227)" stroke-width="1" opacity="1" d="M 66.5 141 L 65.5 143 L 66.5 141 Z "></path><path fill="rgb(227,227,227)" stroke="rgb(227,227,227)" stroke-width="1" opacity="1" d="M 75.5 141 L 68.5 149 L 75.5 141 Z "></path><path fill="rgb(227,227,227)" stroke="rgb(227,227,227)" stroke-width="1" opacity="1" d="M 115.5 141 L 116.5 143 L 115.5 141 Z "></path><path fill="rgb(227,227,227)" stroke="rgb(227,227,227)" stroke-width="1" opacity="1" d="M 90.5 144 L 98 144.5 L 90.5 145 L 90.5 144 Z "></path><path fill="rgb(227,227,227)" stroke="rgb(227,227,227)" stroke-width="1" opacity="1" d="M 110.5 145 L 111.5 147 L 110.5 145 Z "></path><path fill="rgb(227,227,227)" stroke="rgb(227,227,227)" stroke-width="1" opacity="1" d="M 146.5 147 L 145.5 149 L 146.5 147 Z "></path><path fill="rgb(227,227,227)" stroke="rgb(227,227,227)" stroke-width="1" opacity="1" d="M 85.5 150 L 90 150.5 L 85.5 151 L 85.5 150 Z "></path><path fill="rgb(227,227,227)" stroke="rgb(227,227,227)" stroke-width="1" opacity="1" d="M 10.5 151 L 11 154.5 L 10 154.5 L 10.5 151 Z "></path><path fill="rgb(227,227,227)" stroke="rgb(227,227,227)" stroke-width="1" opacity="1" d="M 37.5 151 L 35.5 154 L 37.5 151 Z "></path><path fill="rgb(227,227,227)" stroke="rgb(227,227,227)" stroke-width="1" opacity="1" d="M 104.5 152 L 105.5 154 L 104.5 152 Z "></path><path fill="rgb(227,227,227)" stroke="rgb(227,227,227)" stroke-width="1" opacity="1" d="M 116.5 152 L 120 152.5 L 116.5 153 L 116.5 152 Z "></path><path fill="rgb(227,227,227)" stroke="rgb(227,227,227)" stroke-width="1" opacity="1" d="M 154.5 153 L 159 153.5 L 154.5 154 L 154.5 153 Z "></path><path fill="rgb(227,227,227)" stroke="rgb(227,227,227)" stroke-width="1" opacity="1" d="M 17.5 155 L 18.5 157 L 17.5 155 Z "></path><path fill="rgb(227,227,227)" stroke="rgb(227,227,227)" stroke-width="1" opacity="1" d="M 68.5 161 L 69 163.5 L 68 163.5 L 68.5 161 Z "></path><path fill="rgb(227,227,227)" stroke="rgb(227,227,227)" stroke-width="1" opacity="1" d="M 16.5 163 L 15.5 165 L 16.5 163 Z "></path><path fill="rgb(227,227,227)" stroke="rgb(227,227,227)" stroke-width="1" opacity="1" d="M 155.5 164 L 160.5 170 L 155.5 164 Z "></path><path fill="rgb(227,227,227)" stroke="rgb(227,227,227)" stroke-width="1" opacity="1" d="M 149.5 166 L 150.5 168 L 149.5 166 Z "></path><path fill="rgb(227,227,227)" stroke="rgb(227,227,227)" stroke-width="1" opacity="1" d="M 90.5 168 L 95 168.5 L 90.5 169 L 90.5 168 Z "></path><path fill="rgb(227,227,227)" stroke="rgb(227,227,227)" stroke-width="1" opacity="1" d="M 107.5 169 L 111 169.5 L 107.5 170 L 107.5 169 Z "></path><path fill="rgb(227,227,227)" stroke="rgb(227,227,227)" stroke-width="1" opacity="1" d="M 124.5 170 L 130 170.5 L 124.5 171 L 124.5 170 Z "></path><path fill="rgb(227,227,227)" stroke="rgb(227,227,227)" stroke-width="1" opacity="1" d="M 152.5 170 L 154.5 173 L 152.5 170 Z "></path><path fill="rgb(227,227,227)" stroke="rgb(227,227,227)" stroke-width="1" opacity="1" d="M 72.5 173 L 76.5 178 L 72.5 173 Z "></path><path fill="rgb(227,227,227)" stroke="rgb(227,227,227)" stroke-width="1" opacity="1" d="M 65.5 174 L 66 204.5 L 65 204.5 L 65.5 174 Z "></path><path fill="rgb(227,227,227)" stroke="rgb(227,227,227)" stroke-width="1" opacity="1" d="M 88.5 174 L 91 174.5 L 88.5 175 L 88.5 174 Z "></path><path fill="rgb(227,227,227)" stroke="rgb(227,227,227)" stroke-width="1" opacity="1" d="M 173.5 174 L 181 174.5 L 173.5 175 L 173.5 174 Z "></path><path fill="rgb(227,227,227)" stroke="rgb(227,227,227)" stroke-width="1" opacity="1" d="M 102.5 175 L 106 175.5 L 102.5 176 L 102.5 175 Z "></path><path fill="rgb(227,227,227)" stroke="rgb(227,227,227)" stroke-width="1" opacity="1" d="M 140.5 175 L 139.5 177 L 140.5 175 Z "></path><path fill="rgb(227,227,227)" stroke="rgb(227,227,227)" stroke-width="1" opacity="1" d="M 158.5 175 L 159.5 177 L 158.5 175 Z "></path><path fill="rgb(227,227,227)" stroke="rgb(227,227,227)" stroke-width="1" opacity="1" d="M 119.5 176 L 123 176.5 L 119.5 177 L 119.5 176 Z "></path><path fill="rgb(227,227,227)" stroke="rgb(227,227,227)" stroke-width="1" opacity="1" d="M 127.5 187 L 131 187.5 L 127.5 188 L 127.5 187 Z "></path><path fill="rgb(227,227,227)" stroke="rgb(227,227,227)" stroke-width="1" opacity="1" d="M 184.5 188 L 213 188.5 L 184.5 189 L 184.5 188 Z "></path><path fill="rgb(227,227,227)" stroke="rgb(227,227,227)" stroke-width="1" opacity="1" d="M 6.5 190 L 7 198.5 L 6 198.5 L 6.5 190 Z "></path><path fill="rgb(227,227,227)" stroke="rgb(227,227,227)" stroke-width="1" opacity="1" d="M 105.5 191 L 106.5 193 L 105.5 191 Z "></path><path fill="rgb(227,227,227)" stroke="rgb(227,227,227)" stroke-width="1" opacity="1" d="M 124.5 193 L 127 193.5 L 124.5 194 L 124.5 193 Z "></path><path fill="rgb(227,227,227)" stroke="rgb(227,227,227)" stroke-width="1" opacity="1" d="M 143.5 194 L 157 194.5 L 143.5 195 L 143.5 194 Z "></path><path fill="rgb(227,227,227)" stroke="rgb(227,227,227)" stroke-width="1" opacity="1" d="M 72.5 207 L 73.5 209 L 72.5 207 Z "></path><path fill="rgb(227,227,227)" stroke="rgb(227,227,227)" stroke-width="1" opacity="1" d="M 111.5 210 L 110.5 212 L 111.5 210 Z "></path><path fill="rgb(227,227,227)" stroke="rgb(227,227,227)" stroke-width="1" opacity="1" d="M 108.5 213 L 107.5 215 L 108.5 213 Z "></path><path fill="rgb(227,227,227)" stroke="rgb(227,227,227)" stroke-width="1" opacity="1" d="M 0.5 215 L 6 215.5 L 0.5 216 L 0.5 215 Z "></path><path fill="rgb(227,227,227)" stroke="rgb(227,227,227)" stroke-width="1" opacity="1" d="M 82.5 215 L 98 215.5 L 82.5 216 L 82.5 215 Z "></path><path fill="rgb(255,255,255)" stroke="rgb(255,255,255)" stroke-width="1" opacity="1" d="M 159.5 2 L 212.5 2 L 213 2.5 L 213 8 L 149.5 8 L 148.5 9 L 135.5 9 Q 122.5 13 115 22.5 L 110 31.5 L 101 55.5 L 109.5 56 L 126.5 53 L 150.5 52 L 151.5 51 L 213 51 L 213 56.5 L 212.5 57 L 150.5 57 L 149.5 58 L 137.5 58 L 136.5 59 L 127.5 59 L 126.5 60 L 118.5 60 L 117.5 61 L 97 63 L 81 85 L 95.5 85 L 105.5 87 Q 118.4 92.1 126 102.5 L 132 113.5 L 134 122.5 Q 132.3 127.8 123.5 126 L 122.5 125 L 105.5 125 L 104.5 124 L 96.5 124 L 95.5 123 L 82 122 Q 80.8 140.6 68 148.5 L 68 163.5 Q 69.5 173.5 76.5 178 L 88.5 183 L 115.5 186 L 116.5 187 L 126.5 187 L 127.5 188 L 183.5 188 L 184.5 189 L 213 189 L 213 194.5 L 212.5 195 L 157.5 195 L 156.5 194 L 127.5 194 L 126.5 193 L 115.5 193 L 114.5 192 L 113 193.5 L 113 207.5 L 110 213 L 106.5 215 L 72.5 215 L 67 210.5 L 66 208.5 L 66 174.5 Q 60.4 166.3 62 152 L 56.5 153 L 45.5 153 Q 43.2 150.3 37.5 151 L 26.5 162 L 20.5 164 L 16.5 163 Q 9.6 171.1 7 183.5 L 6 215 L 0.5 215 L 0 214.5 L 0 189.5 L 3 175.5 L 12 158.5 L 11 157.5 L 11 149.5 L 23 136.5 L 23 132.5 Q 19 127.5 21 116.5 Q 24.2 103.2 34.5 97 Q 41.9 90.9 56.5 92 L 67 95 L 71 86.5 L 83 71 L 76.5 71 L 75.5 70 L 63.5 70 L 57 64.5 L 55 56.5 Q 56.5 50 61.5 47 L 74.5 44 L 90.5 44 Q 93.5 45.6 92 51 L 97 51 L 97 49.5 L 108 22.5 L 118.5 11 L 135.5 3 L 158.5 3 L 159.5 2 Z M 74 50 L 65 52 L 61 57 L 62 62 L 65 64 L 90 64 L 94 57 Q 88 59 86 55 L 86 50 L 74 50 Z M 75 91 L 71 99 L 76 104 L 77 101 Q 80 96 86 95 L 90 96 Q 95 98 96 105 L 95 110 L 87 116 L 89 117 Q 94 116 96 118 L 121 119 L 127 120 Q 126 111 121 106 Q 114 96 102 92 L 75 91 Z M 48 98 L 38 102 Q 30 107 27 118 L 27 128 L 28 129 Q 27 131 30 130 L 35 124 Q 34 117 37 114 Q 41 108 48 106 L 56 106 L 62 109 L 68 119 L 68 127 L 65 133 Q 61 140 50 139 L 44 146 L 47 147 L 57 147 L 66 143 Q 74 138 76 126 L 76 119 L 72 109 Q 65 98 48 98 Z M 153 98 L 151 99 L 147 105 L 149 106 L 159 106 L 159 98 L 153 98 Z M 165 98 L 165 106 L 172 106 L 172 98 L 165 98 Z M 178 98 L 178 106 L 186 106 L 186 98 L 178 98 Z M 192 98 L 192 106 L 200 106 L 200 98 L 192 98 Z M 86 101 L 84 102 Q 81 103 82 108 Q 83 110 88 109 L 90 105 L 86 101 Z M 49 112 L 45 114 L 43 117 L 46 116 L 54 118 L 58 126 L 57 130 L 58 131 L 62 126 L 61 118 Q 59 111 49 112 Z M 148 112 L 150 118 L 156 122 L 159 122 L 159 112 L 148 112 Z M 165 112 L 165 123 L 172 123 L 172 112 L 165 112 Z M 178 112 L 178 123 L 186 123 L 186 112 L 178 112 Z M 192 112 L 192 123 L 200 123 L 200 112 L 192 112 Z M 47 122 L 43 125 L 16 153 L 17 156 L 21 158 L 29 152 L 46 135 L 52 128 L 52 126 Q 52 122 47 122 Z M 73 182 L 72 208 L 74 209 L 105 209 L 107 207 L 107 193 L 101 190 L 84 188 L 73 182 Z "></path><path fill="rgb(255,255,255)" stroke="rgb(255,255,255)" stroke-width="1" opacity="1" d="M 152.5 92 L 212.5 92 L 213 92.5 L 213 98 L 206 98 L 206 106 L 213 106 L 213 112 L 206 112 L 206 123 L 213 123 L 213 129 L 157.5 129 Q 149.5 126.5 145 120.5 Q 140.8 115.2 141 105.5 L 143 98.5 L 147.5 94 L 152.5 92 Z "></path><path fill="rgb(255,255,255)" stroke="rgb(255,255,255)" stroke-width="1" opacity="1" d="M 106.5 102 L 112 105.5 L 113 110.5 L 110.5 114 L 104.5 115 L 101 112.5 L 100 107.5 L 103.5 103 L 106.5 102 Z "></path><path fill="rgb(255,255,255)" stroke="rgb(255,255,255)" stroke-width="1" opacity="1" d="M 110.5 133 L 116.5 143 L 121.5 144 L 124.5 147 Q 130.6 146.2 133 148 L 139 167.5 L 140 175.5 L 138.5 177 L 123.5 177 L 122.5 176 L 106.5 176 L 105.5 175 L 83.5 174 L 78 170.5 L 76 166.5 L 76 145.5 L 77.5 144 L 89.5 144 Q 91.3 146.8 97.5 145 L 101.5 144 L 106 139.5 L 108.5 134 L 110.5 133 Z M 110 145 L 108 148 L 112 147 L 110 145 Z M 82 150 L 82 166 L 85 168 Q 89 167 91 169 L 107 169 L 108 170 L 124 170 L 125 171 L 133 171 L 129 155 L 128 153 Q 121 155 120 152 L 114 153 L 112 159 Q 113 161 109 160 L 106 154 L 102 151 L 82 150 Z "></path><path fill="rgb(255,255,255)" stroke="rgb(255,255,255)" stroke-width="1" opacity="1" d="M 147.5 147 L 212.5 147 L 213 147.5 L 213 153 L 154.5 153 L 151 154 Q 152.7 164.6 160.5 170 L 165.5 173 L 173.5 175 L 213 175 L 213 180.5 L 212.5 181 L 170.5 181 Q 157.8 177.7 151 168.5 Q 144.7 162.3 145 149.5 L 147.5 147 Z "></path><path fill="rgb(57,46,46)" stroke="rgb(57,46,46)" stroke-width="1" opacity="1" d="M 114.5 13 L 112.5 16 L 114.5 13 Z "></path><path fill="rgb(57,46,46)" stroke="rgb(57,46,46)" stroke-width="1" opacity="1" d="M 120.5 18 L 116.5 23 L 120.5 18 Z "></path><path fill="rgb(57,46,46)" stroke="rgb(57,46,46)" stroke-width="1" opacity="1" d="M 59.5 47 L 57.5 50 L 59.5 47 Z "></path><path fill="rgb(57,46,46)" stroke="rgb(57,46,46)" stroke-width="1" opacity="1" d="M 153.5 50 L 157 50.5 L 153.5 51 L 153.5 50 Z "></path><path fill="rgb(57,46,46)" stroke="rgb(57,46,46)" stroke-width="1" opacity="1" d="M 21.5 54 L 20.5 56 L 21.5 54 Z "></path><path fill="rgb(57,46,46)" stroke="rgb(57,46,46)" stroke-width="1" opacity="1" d="M 27.5 56 L 28 58.5 L 27 58.5 L 27.5 56 Z "></path><path fill="rgb(57,46,46)" stroke="rgb(57,46,46)" stroke-width="1" opacity="1" d="M 54.5 56 L 55 59.5 L 54 59.5 L 54.5 56 Z "></path><path fill="rgb(57,46,46)" stroke="rgb(57,46,46)" stroke-width="1" opacity="1" d="M 89.5 57 L 92 57.5 L 89.5 58 L 89.5 57 Z "></path><path fill="rgb(57,46,46)" stroke="rgb(57,46,46)" stroke-width="1" opacity="1" d="M 191.5 57 L 206 57.5 L 191.5 58 L 191.5 57 Z "></path><path fill="rgb(57,46,46)" stroke="rgb(57,46,46)" stroke-width="1" opacity="1" d="M 63.5 61 L 64.5 63 L 63.5 61 Z "></path><path fill="rgb(57,46,46)" stroke="rgb(57,46,46)" stroke-width="1" opacity="1" d="M 67.5 63 L 70 63.5 L 67.5 64 L 67.5 63 Z "></path><path fill="rgb(57,46,46)" stroke="rgb(57,46,46)" stroke-width="1" opacity="1" d="M 57.5 66 L 59.5 69 L 57.5 66 Z "></path><path fill="rgb(57,46,46)" stroke="rgb(57,46,46)" stroke-width="1" opacity="1" d="M 31.5 67 L 34.5 71 L 31.5 67 Z "></path><path fill="rgb(57,46,46)" stroke="rgb(57,46,46)" stroke-width="1" opacity="1" d="M 25.5 71 L 26.5 73 L 25.5 71 Z "></path><path fill="rgb(57,46,46)" stroke="rgb(57,46,46)" stroke-width="1" opacity="1" d="M 81.5 71 L 82 72.5 L 80 73.5 L 81.5 71 Z "></path><path fill="rgb(57,46,46)" stroke="rgb(57,46,46)" stroke-width="1" opacity="1" d="M 90.5 73 L 89.5 75 L 90.5 73 Z "></path><path fill="rgb(57,46,46)" stroke="rgb(57,46,46)" stroke-width="1" opacity="1" d="M 43.5 75 L 45 78.5 L 44 78.5 L 43.5 75 Z "></path><path fill="rgb(57,46,46)" stroke="rgb(57,46,46)" stroke-width="1" opacity="1" d="M 30.5 76 L 31.5 78 L 30.5 76 Z "></path><path fill="rgb(57,46,46)" stroke="rgb(57,46,46)" stroke-width="1" opacity="1" d="M 16.5 78 L 21.5 84 L 16.5 78 Z "></path><path fill="rgb(57,46,46)" stroke="rgb(57,46,46)" stroke-width="1" opacity="1" d="M 73.5 82 L 72.5 84 L 73.5 82 Z "></path><path fill="rgb(57,46,46)" stroke="rgb(57,46,46)" stroke-width="1" opacity="1" d="M 13.5 85 L 15.5 88 L 13.5 85 Z "></path><path fill="rgb(57,46,46)" stroke="rgb(57,46,46)" stroke-width="1" opacity="1" d="M 47.5 91 L 56 91.5 L 47.5 92 L 47.5 91 Z "></path><path fill="rgb(57,46,46)" stroke="rgb(57,46,46)" stroke-width="1" opacity="1" d="M 152.5 91 L 157 91.5 L 152.5 92 L 152.5 91 Z "></path><path fill="rgb(57,46,46)" stroke="rgb(57,46,46)" stroke-width="1" opacity="1" d="M 119.5 94 L 124.5 100 L 119.5 94 Z "></path><path fill="rgb(57,46,46)" stroke="rgb(57,46,46)" stroke-width="1" opacity="1" d="M 91.5 96 L 92.5 98 L 91.5 96 Z "></path><path fill="rgb(57,46,46)" stroke="rgb(57,46,46)" stroke-width="1" opacity="1" d="M 32.5 97 L 31.5 99 L 32.5 97 Z "></path><path fill="rgb(57,46,46)" stroke="rgb(57,46,46)" stroke-width="1" opacity="1" d="M 72.5 99 L 74.5 102 L 72.5 99 Z "></path><path fill="rgb(57,46,46)" stroke="rgb(57,46,46)" stroke-width="1" opacity="1" d="M 113.5 99 L 114.5 101 L 113.5 99 Z "></path><path fill="rgb(57,46,46)" stroke="rgb(57,46,46)" stroke-width="1" opacity="1" d="M 165.5 99 L 166 104.5 L 165 104.5 L 165.5 99 Z "></path><path fill="rgb(57,46,46)" stroke="rgb(57,46,46)" stroke-width="1" opacity="1" d="M 26.5 100 L 25.5 102 L 26.5 100 Z "></path><path fill="rgb(57,46,46)" stroke="rgb(57,46,46)" stroke-width="1" opacity="1" d="M 27.5 102 L 26.5 104 L 27.5 102 Z "></path><path fill="rgb(57,46,46)" stroke="rgb(57,46,46)" stroke-width="1" opacity="1" d="M 101.5 103 L 100.5 105 L 101.5 103 Z "></path><path fill="rgb(57,46,46)" stroke="rgb(57,46,46)" stroke-width="1" opacity="1" d="M 66.5 104 L 69.5 108 L 66.5 104 Z "></path><path fill="rgb(57,46,46)" stroke="rgb(57,46,46)" stroke-width="1" opacity="1" d="M 96.5 104 L 97 106.5 L 96 106.5 L 96.5 104 Z "></path><path fill="rgb(57,46,46)" stroke="rgb(57,46,46)" stroke-width="1" opacity="1" d="M 118.5 104 L 119.5 106 L 118.5 104 Z "></path><path fill="rgb(57,46,46)" stroke="rgb(57,46,46)" stroke-width="1" opacity="1" d="M 165.5 113 L 166 121.5 L 165 121.5 L 165.5 113 Z "></path><path fill="rgb(57,46,46)" stroke="rgb(57,46,46)" stroke-width="1" opacity="1" d="M 45.5 115 L 49 115.5 L 45.5 116 L 45.5 115 Z "></path><path fill="rgb(57,46,46)" stroke="rgb(57,46,46)" stroke-width="1" opacity="1" d="M 151.5 117 L 152.5 119 L 151.5 117 Z "></path><path fill="rgb(57,46,46)" stroke="rgb(57,46,46)" stroke-width="1" opacity="1" d="M 33.5 124 L 29.5 129 L 28 128.5 L 33.5 124 Z "></path><path fill="rgb(57,46,46)" stroke="rgb(57,46,46)" stroke-width="1" opacity="1" d="M 133.5 124 L 132.5 126 L 133.5 124 Z "></path><path fill="rgb(57,46,46)" stroke="rgb(57,46,46)" stroke-width="1" opacity="1" d="M 58.5 125 L 59 127.5 L 58 127.5 L 58.5 125 Z "></path><path fill="rgb(57,46,46)" stroke="rgb(57,46,46)" stroke-width="1" opacity="1" d="M 127.5 126 L 130 126.5 L 127.5 127 L 127.5 126 Z "></path><path fill="rgb(57,46,46)" stroke="rgb(57,46,46)" stroke-width="1" opacity="1" d="M 39.5 129 L 23.5 146 L 39.5 129 Z "></path><path fill="rgb(57,46,46)" stroke="rgb(57,46,46)" stroke-width="1" opacity="1" d="M 21.5 136 L 15.5 143 L 21.5 136 Z "></path><path fill="rgb(57,46,46)" stroke="rgb(57,46,46)" stroke-width="1" opacity="1" d="M 75.5 142 L 70.5 148 L 75.5 142 Z "></path><path fill="rgb(57,46,46)" stroke="rgb(57,46,46)" stroke-width="1" opacity="1" d="M 156.5 164 L 160.5 169 L 156.5 164 Z "></path><path fill="rgb(57,46,46)" stroke="rgb(57,46,46)" stroke-width="1" opacity="1" d="M 152.5 171 L 154.5 174 L 152.5 171 Z "></path><path fill="rgb(57,46,46)" stroke="rgb(57,46,46)" stroke-width="1" opacity="1" d="M 73.5 173 L 77.5 178 L 73.5 173 Z "></path><path fill="rgb(57,46,46)" stroke="rgb(57,46,46)" stroke-width="1" opacity="1" d="M 140.5 176 L 139.5 178 L 140.5 176 Z "></path><path fill="rgb(57,46,46)" stroke="rgb(57,46,46)" stroke-width="1" opacity="1" d="M 179.5 181 L 197 181.5 L 179.5 182 L 179.5 181 Z "></path><path fill="rgb(57,46,46)" stroke="rgb(57,46,46)" stroke-width="1" opacity="1" d="M 150.5 187 L 162 187.5 L 150.5 188 L 150.5 187 Z "></path><path fill="rgb(57,46,46)" stroke="rgb(57,46,46)" stroke-width="1" opacity="1" d="M 72.5 206 L 73.5 208 L 72.5 206 Z "></path><path fill="rgb(57,46,46)" stroke="rgb(57,46,46)" stroke-width="1" opacity="1" d="M 75.5 208 L 104 208.5 L 75.5 209 L 75.5 208 Z "></path><path fill="rgb(80,80,80)" stroke="rgb(80,80,80)" stroke-width="1" opacity="1" d="M 81.5 50 Q 85.3 49.3 86 51.5 L 85.5 53 L 85 51 Q 80.6 52 81.5 50 Z "></path><path fill="rgb(80,80,80)" stroke="rgb(80,80,80)" stroke-width="1" opacity="1" d="M 157.5 50 L 161 50.5 L 157.5 51 L 157.5 50 Z "></path><path fill="rgb(80,80,80)" stroke="rgb(80,80,80)" stroke-width="1" opacity="1" d="M 177.5 57 L 191 57.5 L 177.5 58 L 177.5 57 Z "></path><path fill="rgb(80,80,80)" stroke="rgb(80,80,80)" stroke-width="1" opacity="1" d="M 87.5 84 L 91 84.5 L 87.5 85 L 87.5 84 Z "></path><path fill="rgb(80,80,80)" stroke="rgb(80,80,80)" stroke-width="1" opacity="1" d="M 157.5 91 L 169 91.5 L 157.5 92 L 157.5 91 Z "></path><path fill="rgb(80,80,80)" stroke="rgb(80,80,80)" stroke-width="1" opacity="1" d="M 185.5 99 L 186 104.5 L 185 104.5 L 185.5 99 Z "></path><path fill="rgb(80,80,80)" stroke="rgb(80,80,80)" stroke-width="1" opacity="1" d="M 149.5 112 L 158 112.5 L 149.5 113 L 149.5 112 Z "></path><path fill="rgb(80,80,80)" stroke="rgb(80,80,80)" stroke-width="1" opacity="1" d="M 166.5 112 L 172 112.5 L 166.5 113 L 166.5 112 Z "></path><path fill="rgb(80,80,80)" stroke="rgb(80,80,80)" stroke-width="1" opacity="1" d="M 179.5 112 Q 184.8 110.8 186 113.5 L 185.5 122 L 185 113 L 179.5 113 L 179.5 112 Z "></path><path fill="rgb(80,80,80)" stroke="rgb(80,80,80)" stroke-width="1" opacity="1" d="M 193.5 112 L 199 112.5 L 193.5 113 L 193.5 112 Z "></path><path fill="rgb(80,80,80)" stroke="rgb(80,80,80)" stroke-width="1" opacity="1" d="M 207.5 112 L 213 112.5 L 207.5 113 L 207.5 112 Z "></path><path fill="rgb(80,80,80)" stroke="rgb(80,80,80)" stroke-width="1" opacity="1" d="M 27.5 121 L 28 123.5 L 27 123.5 L 27.5 121 Z "></path><path fill="rgb(80,80,80)" stroke="rgb(80,80,80)" stroke-width="1" opacity="1" d="M 159.5 129 L 163 129.5 L 159.5 130 L 159.5 129 Z "></path><path fill="rgb(80,80,80)" stroke="rgb(80,80,80)" stroke-width="1" opacity="1" d="M 147.5 146 L 213 146.5 L 147.5 147 L 147.5 146 Z "></path><path fill="rgb(80,80,80)" stroke="rgb(80,80,80)" stroke-width="1" opacity="1" d="M 61.5 159 L 62 161.5 L 61 161.5 L 61.5 159 Z "></path><path fill="rgb(80,80,80)" stroke="rgb(80,80,80)" stroke-width="1" opacity="1" d="M 100.5 168 L 103 168.5 L 100.5 169 L 100.5 168 Z "></path><path fill="rgb(80,80,80)" stroke="rgb(80,80,80)" stroke-width="1" opacity="1" d="M 117.5 169 L 120 169.5 L 117.5 170 L 117.5 169 Z "></path><path fill="rgb(80,80,80)" stroke="rgb(80,80,80)" stroke-width="1" opacity="1" d="M 94.5 175 L 97 175.5 L 94.5 176 L 94.5 175 Z "></path><path fill="rgb(80,80,80)" stroke="rgb(80,80,80)" stroke-width="1" opacity="1" d="M 110.5 176 L 113 176.5 L 110.5 177 L 110.5 176 Z "></path><path fill="rgb(80,80,80)" stroke="rgb(80,80,80)" stroke-width="1" opacity="1" d="M 127.5 177 L 130 177.5 L 127.5 178 L 127.5 177 Z "></path><path fill="rgb(80,80,80)" stroke="rgb(80,80,80)" stroke-width="1" opacity="1" d="M 198.5 181 L 213 181.5 L 198.5 182 L 198.5 181 Z "></path><path fill="rgb(80,80,80)" stroke="rgb(80,80,80)" stroke-width="1" opacity="1" d="M 142.5 187 L 150 187.5 L 142.5 188 L 142.5 187 Z "></path><path fill="rgb(80,80,80)" stroke="rgb(80,80,80)" stroke-width="1" opacity="1" d="M 131.5 194 L 134 194.5 L 131.5 195 L 131.5 194 Z "></path><path fill="rgb(80,80,80)" stroke="rgb(80,80,80)" stroke-width="1" opacity="1" d="M 113.5 203 L 114 205.5 L 113 205.5 L 113.5 203 Z "></path><path fill="rgb(182,43,49)" stroke="rgb(182,43,49)" stroke-width="1" opacity="1" d="M 25.5 54 L 26.5 56 L 25.5 54 Z "></path><path fill="rgb(182,43,49)" stroke="rgb(182,43,49)" stroke-width="1" opacity="1" d="M 18.5 63 L 19 64.5 L 17 65.5 L 18.5 63 Z "></path><path fill="rgb(182,43,49)" stroke="rgb(182,43,49)" stroke-width="1" opacity="1" d="M 16.5 67 L 12.5 72 L 16.5 67 Z "></path><path fill="rgb(182,43,49)" stroke="rgb(182,43,49)" stroke-width="1" opacity="1" d="M 24.5 69 L 25.5 71 L 24.5 69 Z "></path><path fill="rgb(182,43,49)" stroke="rgb(182,43,49)" stroke-width="1" opacity="1" d="M 21.5 71 L 15.5 78 L 21.5 71 Z "></path><path fill="rgb(182,43,49)" stroke="rgb(182,43,49)" stroke-width="1" opacity="1" d="M 35.5 71 L 36.5 73 L 35.5 71 Z "></path><path fill="rgb(182,43,49)" stroke="rgb(182,43,49)" stroke-width="1" opacity="1" d="M 27.5 73 L 29.5 76 L 27.5 73 Z "></path><path fill="rgb(182,43,49)" stroke="rgb(182,43,49)" stroke-width="1" opacity="1" d="M 5.5 74 L 7 74.5 L 4 76.5 L 3.5 79 L 3 76.5 L 5.5 74 Z "></path><path fill="rgb(182,43,49)" stroke="rgb(182,43,49)" stroke-width="1" opacity="1" d="M 31.5 78 L 25.5 85 L 31.5 78 Z "></path><path fill="rgb(182,43,49)" stroke="rgb(182,43,49)" stroke-width="1" opacity="1" d="M 43.5 79 L 42.5 81 L 43.5 79 Z "></path><path fill="rgb(182,43,49)" stroke="rgb(182,43,49)" stroke-width="1" opacity="1" d="M 11.5 83 L 12.5 85 L 11.5 83 Z "></path><path fill="rgb(182,43,49)" stroke="rgb(182,43,49)" stroke-width="1" opacity="1" d="M 34.5 84 L 31.5 88 L 34.5 84 Z "></path><path fill="rgb(182,43,49)" stroke="rgb(182,43,49)" stroke-width="1" opacity="1" d="M 22.5 85 L 25 86.5 L 23.5 87 L 22.5 85 Z "></path><path fill="rgb(182,43,49)" stroke="rgb(182,43,49)" stroke-width="1" opacity="1" d="M 20.5 98 L 23 101.5 L 20 99.5 L 20.5 98 Z "></path><path fill="rgb(110,110,110)" stroke="rgb(110,110,110)" stroke-width="1" opacity="1" d="M 213.5 2 L 214 7.5 L 213 7.5 L 213.5 2 Z "></path><path fill="rgb(110,110,110)" stroke="rgb(110,110,110)" stroke-width="1" opacity="1" d="M 78.5 43 L 81 43.5 L 78.5 44 L 78.5 43 Z "></path><path fill="rgb(110,110,110)" stroke="rgb(110,110,110)" stroke-width="1" opacity="1" d="M 78.5 50 L 81 50.5 L 78.5 51 L 78.5 50 Z "></path><path fill="rgb(110,110,110)" stroke="rgb(110,110,110)" stroke-width="1" opacity="1" d="M 161.5 50 L 174 50.5 L 161.5 51 L 161.5 50 Z "></path><path fill="rgb(110,110,110)" stroke="rgb(110,110,110)" stroke-width="1" opacity="1" d="M 141.5 51 L 144 51.5 L 141.5 52 L 141.5 51 Z "></path><path fill="rgb(110,110,110)" stroke="rgb(110,110,110)" stroke-width="1" opacity="1" d="M 213.5 51 L 214 56.5 L 213 56.5 L 213.5 51 Z "></path><path fill="rgb(110,110,110)" stroke="rgb(110,110,110)" stroke-width="1" opacity="1" d="M 163.5 57 L 177 57.5 L 163.5 58 L 163.5 57 Z "></path><path fill="rgb(110,110,110)" stroke="rgb(110,110,110)" stroke-width="1" opacity="1" d="M 142.5 58 L 145 58.5 L 142.5 59 L 142.5 58 Z "></path><path fill="rgb(110,110,110)" stroke="rgb(110,110,110)" stroke-width="1" opacity="1" d="M 97.5 64 L 96.5 66 L 97.5 64 Z "></path><path fill="rgb(110,110,110)" stroke="rgb(110,110,110)" stroke-width="1" opacity="1" d="M 88.5 75 L 87.5 77 L 88.5 75 Z "></path><path fill="rgb(110,110,110)" stroke="rgb(110,110,110)" stroke-width="1" opacity="1" d="M 82.5 84 L 87 84.5 L 82.5 85 L 82.5 84 Z "></path><path fill="rgb(110,110,110)" stroke="rgb(110,110,110)" stroke-width="1" opacity="1" d="M 76.5 91 L 79 91.5 L 76.5 92 L 76.5 91 Z "></path><path fill="rgb(110,110,110)" stroke="rgb(110,110,110)" stroke-width="1" opacity="1" d="M 169.5 91 L 212.5 91 L 214 92.5 Q 215.3 97.8 212.5 99 Q 204.3 96.3 207 104.5 L 206 104.5 Q 204.8 99.3 207.5 98 L 213 98 L 213 92 L 169.5 92 L 169.5 91 Z "></path><path fill="rgb(110,110,110)" stroke="rgb(110,110,110)" stroke-width="1" opacity="1" d="M 155.5 98 L 158 98.5 L 155.5 99 L 155.5 98 Z "></path><path fill="rgb(110,110,110)" stroke="rgb(110,110,110)" stroke-width="1" opacity="1" d="M 166.5 98 L 172 98.5 L 166.5 99 L 166.5 98 Z "></path><path fill="rgb(110,110,110)" stroke="rgb(110,110,110)" stroke-width="1" opacity="1" d="M 179.5 98 L 185 98.5 L 179.5 99 L 179.5 98 Z "></path><path fill="rgb(110,110,110)" stroke="rgb(110,110,110)" stroke-width="1" opacity="1" d="M 193.5 98 Q 198.8 96.8 200 99.5 L 199.5 105 L 199 99 L 193.5 99 L 193.5 98 Z "></path><path fill="rgb(110,110,110)" stroke="rgb(110,110,110)" stroke-width="1" opacity="1" d="M 48.5 105 L 54 105.5 L 48.5 106 L 48.5 105 Z "></path><path fill="rgb(110,110,110)" stroke="rgb(110,110,110)" stroke-width="1" opacity="1" d="M 213.5 106 L 214 111.5 L 213 111.5 L 213.5 106 Z "></path><path fill="rgb(110,110,110)" stroke="rgb(110,110,110)" stroke-width="1" opacity="1" d="M 62.5 109 L 64.5 112 L 62.5 109 Z "></path><path fill="rgb(110,110,110)" stroke="rgb(110,110,110)" stroke-width="1" opacity="1" d="M 199.5 113 L 200 121.5 Q 198.8 124.3 193.5 123 L 193.5 122 L 199 122 L 199.5 113 Z "></path><path fill="rgb(110,110,110)" stroke="rgb(110,110,110)" stroke-width="1" opacity="1" d="M 206.5 113 L 207 122 Q 212.4 120.5 214 123.5 Q 215.3 128.8 212.5 130 L 163 129.5 L 213 129 L 213 123 L 207.5 123 L 206 121.5 L 206.5 113 Z "></path><path fill="rgb(110,110,110)" stroke="rgb(110,110,110)" stroke-width="1" opacity="1" d="M 53.5 117 L 55.5 120 L 53.5 117 Z "></path><path fill="rgb(110,110,110)" stroke="rgb(110,110,110)" stroke-width="1" opacity="1" d="M 111.5 118 L 114 118.5 L 111.5 119 L 111.5 118 Z "></path><path fill="rgb(110,110,110)" stroke="rgb(110,110,110)" stroke-width="1" opacity="1" d="M 61.5 121 L 62 123.5 L 61 123.5 L 61.5 121 Z "></path><path fill="rgb(110,110,110)" stroke="rgb(110,110,110)" stroke-width="1" opacity="1" d="M 68.5 121 L 69 123.5 L 68 123.5 L 68.5 121 Z "></path><path fill="rgb(110,110,110)" stroke="rgb(110,110,110)" stroke-width="1" opacity="1" d="M 165.5 122 L 172 122.5 L 165.5 123 L 165.5 122 Z "></path><path fill="rgb(110,110,110)" stroke="rgb(110,110,110)" stroke-width="1" opacity="1" d="M 179.5 122 L 185 122.5 L 179.5 123 L 179.5 122 Z "></path><path fill="rgb(110,110,110)" stroke="rgb(110,110,110)" stroke-width="1" opacity="1" d="M 49.5 123 L 50.5 125 L 49.5 123 Z "></path><path fill="rgb(110,110,110)" stroke="rgb(110,110,110)" stroke-width="1" opacity="1" d="M 110.5 125 L 114 125.5 L 110.5 126 L 110.5 125 Z "></path><path fill="rgb(110,110,110)" stroke="rgb(110,110,110)" stroke-width="1" opacity="1" d="M 48.5 130 L 46.5 133 L 48.5 130 Z "></path><path fill="rgb(110,110,110)" stroke="rgb(110,110,110)" stroke-width="1" opacity="1" d="M 82.5 143 L 85 143.5 L 82.5 144 L 82.5 143 Z "></path><path fill="rgb(110,110,110)" stroke="rgb(110,110,110)" stroke-width="1" opacity="1" d="M 75.5 145 L 76 164.5 L 75 164.5 L 75.5 145 Z "></path><path fill="rgb(110,110,110)" stroke="rgb(110,110,110)" stroke-width="1" opacity="1" d="M 48.5 146 L 54 146.5 L 48.5 147 L 48.5 146 Z "></path><path fill="rgb(110,110,110)" stroke="rgb(110,110,110)" stroke-width="1" opacity="1" d="M 213.5 147 L 214 152.5 L 213 152.5 L 213.5 147 Z "></path><path fill="rgb(110,110,110)" stroke="rgb(110,110,110)" stroke-width="1" opacity="1" d="M 19.5 149 L 18.5 151 L 19.5 149 Z "></path><path fill="rgb(110,110,110)" stroke="rgb(110,110,110)" stroke-width="1" opacity="1" d="M 68.5 151 L 69 156.5 L 68 156.5 L 68.5 151 Z "></path><path fill="rgb(110,110,110)" stroke="rgb(110,110,110)" stroke-width="1" opacity="1" d="M 82.5 151 L 83 164.5 L 82 164.5 L 82.5 151 Z "></path><path fill="rgb(110,110,110)" stroke="rgb(110,110,110)" stroke-width="1" opacity="1" d="M 96.5 151 L 99 151.5 L 96.5 152 L 96.5 151 Z "></path><path fill="rgb(110,110,110)" stroke="rgb(110,110,110)" stroke-width="1" opacity="1" d="M 144.5 151 L 145 153.5 L 144 153.5 L 144.5 151 Z "></path><path fill="rgb(110,110,110)" stroke="rgb(110,110,110)" stroke-width="1" opacity="1" d="M 26.5 152 L 24.5 155 L 26.5 152 Z "></path><path fill="rgb(110,110,110)" stroke="rgb(110,110,110)" stroke-width="1" opacity="1" d="M 61.5 153 L 62 158.5 L 61 158.5 L 61.5 153 Z "></path><path fill="rgb(110,110,110)" stroke="rgb(110,110,110)" stroke-width="1" opacity="1" d="M 28.5 160 L 27.5 162 L 28.5 160 Z "></path><path fill="rgb(110,110,110)" stroke="rgb(110,110,110)" stroke-width="1" opacity="1" d="M 97.5 168 L 100 168.5 L 97.5 169 L 97.5 168 Z "></path><path fill="rgb(110,110,110)" stroke="rgb(110,110,110)" stroke-width="1" opacity="1" d="M 113.5 169 L 117 169.5 L 113.5 170 L 113.5 169 Z "></path><path fill="rgb(110,110,110)" stroke="rgb(110,110,110)" stroke-width="1" opacity="1" d="M 97.5 175 L 100 175.5 L 97.5 176 L 97.5 175 Z "></path><path fill="rgb(110,110,110)" stroke="rgb(110,110,110)" stroke-width="1" opacity="1" d="M 213.5 175 L 214 180.5 L 213 180.5 L 213.5 175 Z "></path><path fill="rgb(110,110,110)" stroke="rgb(110,110,110)" stroke-width="1" opacity="1" d="M 113.5 176 L 116 176.5 L 113.5 177 L 113.5 176 Z "></path><path fill="rgb(110,110,110)" stroke="rgb(110,110,110)" stroke-width="1" opacity="1" d="M 130.5 177 L 139 177.5 L 130.5 178 L 130.5 177 Z "></path><path fill="rgb(110,110,110)" stroke="rgb(110,110,110)" stroke-width="1" opacity="1" d="M 135.5 187 L 142 187.5 L 135.5 188 L 135.5 187 Z "></path><path fill="rgb(110,110,110)" stroke="rgb(110,110,110)" stroke-width="1" opacity="1" d="M 213.5 189 L 214 194.5 L 213 194.5 L 213.5 189 Z "></path><path fill="rgb(110,110,110)" stroke="rgb(110,110,110)" stroke-width="1" opacity="1" d="M 113.5 194 L 114 202.5 L 113 202.5 L 113.5 194 Z "></path><path fill="rgb(110,110,110)" stroke="rgb(110,110,110)" stroke-width="1" opacity="1" d="M 134.5 194 L 139 194.5 L 134.5 195 L 134.5 194 Z "></path><path fill="rgb(110,110,110)" stroke="rgb(110,110,110)" stroke-width="1" opacity="1" d="M 106.5 196 L 107 203.5 L 106 203.5 L 106.5 196 Z "></path><path fill="rgb(110,110,110)" stroke="rgb(110,110,110)" stroke-width="1" opacity="1" d="M 6.5 207 L 7 214.5 L 6 214.5 L 6.5 207 Z "></path><path fill="rgb(110,110,110)" stroke="rgb(110,110,110)" stroke-width="1" opacity="1" d="M 105.5 207 L 104.5 209 L 105.5 207 Z "></path><path fill="rgb(110,110,110)" stroke="rgb(110,110,110)" stroke-width="1" opacity="1" d="M 73.5 215 L 76 215.5 L 73.5 216 L 73.5 215 Z "></path><path fill="rgb(219,49,56)" stroke="rgb(219,49,56)" stroke-width="1" opacity="1" d="M 22.5 54 Q 26.5 53.5 27 56.5 Q 28.3 68.3 36.5 73 L 44 76.5 Q 44.5 80.5 41.5 81 Q 34.1 82.1 31 87.5 Q 26.7 92.8 26 101 L 23.5 102 Q 19 99 19 91.5 L 11.5 83 L 4 80 Q 3 76.2 5.5 75 Q 13.2 73.1 17 67.5 L 22.5 54 Z M 24 69 L 15 78 L 22 86 L 25 87 L 32 79 L 26 71 L 24 69 Z "></path><path fill="rgb(164,164,164)" stroke="rgb(164,164,164)" stroke-width="1" opacity="1" d="M 117.5 11 L 116.5 13 L 117.5 11 Z "></path><path fill="rgb(164,164,164)" stroke="rgb(164,164,164)" stroke-width="1" opacity="1" d="M 111.5 17 L 110.5 19 L 111.5 17 Z "></path><path fill="rgb(164,164,164)" stroke="rgb(164,164,164)" stroke-width="1" opacity="1" d="M 81.5 43 L 90 43.5 L 81.5 44 L 81.5 43 Z "></path><path fill="rgb(164,164,164)" stroke="rgb(164,164,164)" stroke-width="1" opacity="1" d="M 92.5 46 L 93 49.5 L 92 49.5 L 92.5 46 Z "></path><path fill="rgb(164,164,164)" stroke="rgb(164,164,164)" stroke-width="1" opacity="1" d="M 174.5 50 L 188 50.5 L 174.5 51 L 174.5 50 Z "></path><path fill="rgb(164,164,164)" stroke="rgb(164,164,164)" stroke-width="1" opacity="1" d="M 144.5 51 L 147 51.5 L 144.5 52 L 144.5 51 Z "></path><path fill="rgb(164,164,164)" stroke="rgb(164,164,164)" stroke-width="1" opacity="1" d="M 86.5 55 L 87.5 57 L 86.5 55 Z "></path><path fill="rgb(164,164,164)" stroke="rgb(164,164,164)" stroke-width="1" opacity="1" d="M 157.5 57 L 163 57.5 L 157.5 58 L 157.5 57 Z "></path><path fill="rgb(164,164,164)" stroke="rgb(164,164,164)" stroke-width="1" opacity="1" d="M 80.5 74 L 79.5 76 L 80.5 74 Z "></path><path fill="rgb(164,164,164)" stroke="rgb(164,164,164)" stroke-width="1" opacity="1" d="M 72.5 84 L 71.5 86 L 72.5 84 Z "></path><path fill="rgb(164,164,164)" stroke="rgb(164,164,164)" stroke-width="1" opacity="1" d="M 79.5 91 L 86 91.5 L 79.5 92 L 79.5 91 Z "></path><path fill="rgb(164,164,164)" stroke="rgb(164,164,164)" stroke-width="1" opacity="1" d="M 144.5 96 L 143.5 98 L 144.5 96 Z "></path><path fill="rgb(164,164,164)" stroke="rgb(164,164,164)" stroke-width="1" opacity="1" d="M 79.5 97 L 77.5 100 L 79.5 97 Z "></path><path fill="rgb(164,164,164)" stroke="rgb(164,164,164)" stroke-width="1" opacity="1" d="M 49.5 98 L 52 98.5 L 49.5 99 L 49.5 98 Z "></path><path fill="rgb(164,164,164)" stroke="rgb(164,164,164)" stroke-width="1" opacity="1" d="M 192.5 99 L 193 105 L 199 105.5 L 193.5 106 Q 190.4 104.4 192.5 99 Z "></path><path fill="rgb(164,164,164)" stroke="rgb(164,164,164)" stroke-width="1" opacity="1" d="M 115.5 100 L 118.5 104 L 115.5 100 Z "></path><path fill="rgb(164,164,164)" stroke="rgb(164,164,164)" stroke-width="1" opacity="1" d="M 149.5 105 L 158 105.5 L 149.5 106 L 149.5 105 Z "></path><path fill="rgb(164,164,164)" stroke="rgb(164,164,164)" stroke-width="1" opacity="1" d="M 165.5 105 L 172 105.5 L 165.5 106 L 165.5 105 Z "></path><path fill="rgb(164,164,164)" stroke="rgb(164,164,164)" stroke-width="1" opacity="1" d="M 179.5 105 L 186 105.5 L 179.5 106 L 179.5 105 Z "></path><path fill="rgb(164,164,164)" stroke="rgb(164,164,164)" stroke-width="1" opacity="1" d="M 207.5 105 L 213 105.5 L 207.5 106 L 207.5 105 Z "></path><path fill="rgb(164,164,164)" stroke="rgb(164,164,164)" stroke-width="1" opacity="1" d="M 88.5 107 L 87.5 109 L 88.5 107 Z "></path><path fill="rgb(164,164,164)" stroke="rgb(164,164,164)" stroke-width="1" opacity="1" d="M 38.5 111 L 37.5 113 L 38.5 111 Z "></path><path fill="rgb(164,164,164)" stroke="rgb(164,164,164)" stroke-width="1" opacity="1" d="M 192.5 113 L 193 121.5 L 192 121.5 L 192.5 113 Z "></path><path fill="rgb(164,164,164)" stroke="rgb(164,164,164)" stroke-width="1" opacity="1" d="M 105.5 115 L 108 115.5 L 105.5 116 L 105.5 115 Z "></path><path fill="rgb(164,164,164)" stroke="rgb(164,164,164)" stroke-width="1" opacity="1" d="M 20.5 120 L 21 124.5 L 20 124.5 L 20.5 120 Z "></path><path fill="rgb(164,164,164)" stroke="rgb(164,164,164)" stroke-width="1" opacity="1" d="M 75.5 121 L 76 123.5 L 75 123.5 L 75.5 121 Z "></path><path fill="rgb(164,164,164)" stroke="rgb(164,164,164)" stroke-width="1" opacity="1" d="M 145.5 121 L 148.5 125 L 145.5 121 Z "></path><path fill="rgb(164,164,164)" stroke="rgb(164,164,164)" stroke-width="1" opacity="1" d="M 114.5 125 L 117 125.5 L 114.5 126 L 114.5 125 Z "></path><path fill="rgb(164,164,164)" stroke="rgb(164,164,164)" stroke-width="1" opacity="1" d="M 60.5 127 L 59.5 129 L 60.5 127 Z "></path><path fill="rgb(164,164,164)" stroke="rgb(164,164,164)" stroke-width="1" opacity="1" d="M 50.5 128 L 49.5 130 L 50.5 128 Z "></path><path fill="rgb(164,164,164)" stroke="rgb(164,164,164)" stroke-width="1" opacity="1" d="M 111.5 133 L 112.5 135 L 111.5 133 Z "></path><path fill="rgb(164,164,164)" stroke="rgb(164,164,164)" stroke-width="1" opacity="1" d="M 63.5 134 L 62.5 136 L 63.5 134 Z "></path><path fill="rgb(164,164,164)" stroke="rgb(164,164,164)" stroke-width="1" opacity="1" d="M 69.5 138 L 67.5 141 L 69.5 138 Z "></path><path fill="rgb(164,164,164)" stroke="rgb(164,164,164)" stroke-width="1" opacity="1" d="M 15.5 143 L 12.5 147 L 15.5 143 Z "></path><path fill="rgb(164,164,164)" stroke="rgb(164,164,164)" stroke-width="1" opacity="1" d="M 78.5 143 L 82 143.5 L 78.5 144 L 78.5 143 Z "></path><path fill="rgb(164,164,164)" stroke="rgb(164,164,164)" stroke-width="1" opacity="1" d="M 82.5 150 L 85 150.5 L 82.5 151 L 82.5 150 Z "></path><path fill="rgb(164,164,164)" stroke="rgb(164,164,164)" stroke-width="1" opacity="1" d="M 49.5 153 L 53 153.5 L 49.5 154 L 49.5 153 Z "></path><path fill="rgb(164,164,164)" stroke="rgb(164,164,164)" stroke-width="1" opacity="1" d="M 159.5 153 L 213 153.5 L 159.5 154 L 159.5 153 Z "></path><path fill="rgb(164,164,164)" stroke="rgb(164,164,164)" stroke-width="1" opacity="1" d="M 34.5 154 L 29.5 160 L 34.5 154 Z "></path><path fill="rgb(164,164,164)" stroke="rgb(164,164,164)" stroke-width="1" opacity="1" d="M 23.5 155 L 22.5 157 L 23.5 155 Z "></path><path fill="rgb(164,164,164)" stroke="rgb(164,164,164)" stroke-width="1" opacity="1" d="M 68.5 157 L 69 160.5 L 68 160.5 L 68.5 157 Z "></path><path fill="rgb(164,164,164)" stroke="rgb(164,164,164)" stroke-width="1" opacity="1" d="M 132.5 169 L 131.5 171 L 130 170.5 L 132.5 169 Z "></path><path fill="rgb(164,164,164)" stroke="rgb(164,164,164)" stroke-width="1" opacity="1" d="M 155.5 173 L 156.5 175 L 155.5 173 Z "></path><path fill="rgb(164,164,164)" stroke="rgb(164,164,164)" stroke-width="1" opacity="1" d="M 181.5 174 L 213 174.5 L 181.5 175 L 181.5 174 Z "></path><path fill="rgb(164,164,164)" stroke="rgb(164,164,164)" stroke-width="1" opacity="1" d="M 116.5 176 L 119 176.5 L 116.5 177 L 116.5 176 Z "></path><path fill="rgb(164,164,164)" stroke="rgb(164,164,164)" stroke-width="1" opacity="1" d="M 131.5 187 L 135 187.5 L 131.5 188 L 131.5 187 Z "></path><path fill="rgb(164,164,164)" stroke="rgb(164,164,164)" stroke-width="1" opacity="1" d="M 106.5 193 L 107 195.5 L 106 195.5 L 106.5 193 Z "></path><path fill="rgb(164,164,164)" stroke="rgb(164,164,164)" stroke-width="1" opacity="1" d="M 139.5 194 L 143 194.5 L 139.5 195 L 139.5 194 Z "></path><path fill="rgb(164,164,164)" stroke="rgb(164,164,164)" stroke-width="1" opacity="1" d="M 6.5 199 L 7 206.5 L 6 206.5 L 6.5 199 Z "></path><path fill="rgb(164,164,164)" stroke="rgb(164,164,164)" stroke-width="1" opacity="1" d="M 65.5 205 L 66 207.5 L 65 207.5 L 65.5 205 Z "></path><path fill="rgb(164,164,164)" stroke="rgb(164,164,164)" stroke-width="1" opacity="1" d="M 67.5 211 L 69.5 214 L 67.5 211 Z "></path><path fill="rgb(164,164,164)" stroke="rgb(164,164,164)" stroke-width="1" opacity="1" d="M 76.5 215 L 82 215.5 L 76.5 216 L 76.5 215 Z "></path><path fill="rgb(164,164,164)" stroke="rgb(164,164,164)" stroke-width="1" opacity="1" d="M 98.5 215 L 103 215.5 L 98.5 216 L 98.5 215 Z "></path></svg>